<?xml version="1.0" encoding="UTF-8"?>
<svg id="Layer_2" data-name="Layer 2" xmlns="http://www.w3.org/2000/svg" viewBox="0 0 398.41 596.57">
  <defs>
    <style>
      .cls-1 {
        fill: #ffd345;
        stroke-width: 0px;
      }
    </style>
  </defs>
  <g id="Layer_2-2" data-name="Layer 2">
    <path class="cls-1" d="M199.2,0C57.05,0,0,109.86,0,187.13c0,112.86,88.4,196.16,108.66,283.71h99.68v-126.02l37.08,12.6-23.51-59.14-23.51-59.14-23.51,59.14-23.51,59.14,38.7-13.15v101.25h-71.67c-18.08-78.13-96.97-152.48-96.97-253.2,0-68.96,50.91-167,177.78-167s177.78,98.05,177.78,167c0,12.22-1.18,24.43-3.4,36.45-2.15,11.66-5.28,23.13-9.11,34.34-3.8,11.1-8.29,21.95-13.22,32.59-4.89,10.56-10.2,20.93-15.7,31.18-5.42,10.1-11.01,20.1-16.57,30.13-5.4,9.74-10.75,19.5-15.82,29.42-15.8,30.94-27.11,63.91-31.46,98.34-.03.26,0,1-.22,1.21,0,1.73-1.4,3.13-3.13,3.13h-132.34c-15.05,0-27.36,3.22-27.36,18.27v18.27c0,15.05,12.31,18.27,27.36,18.27h19.82s97.42,0,97.42,0h15.09c1.73,0,3.13,1.4,3.13,3.13v12.01c0,1.73-1.4,3.13-3.13,3.13H92.22l5.48-16.13-31.77,12.63-31.77,12.63,31.77,12.63,31.77,12.63-5.48-16.13h170.17c15.05,0,27.36-3.22,27.36-18.27v-18.27c0-15.05-12.31-18.27-27.36-18.27,0,0-19.82,0-19.82,0h-112.52c-1.73,0-3.13-1.4-3.13-3.13v-12.01c0-1.73,1.4-3.13,3.13-3.13h132.34c14.92,0,27.15-3.17,27.36-17.9.04-2.98.13-5.97.28-8.95.55-11.23,1.96-22.41,5.16-33.21,4.28-14.44,10.95-28.43,17.68-41.86,4.93-9.83,10.18-19.5,15.53-29.11,5.57-10.02,11.25-19.97,16.83-29.98,5.72-10.26,11.35-20.57,16.69-31.03,5.39-10.57,10.5-21.3,15.09-32.25,4.61-10.98,8.7-22.19,12.04-33.63,3.36-11.52,5.95-23.28,7.54-35.18,1.2-8.99,1.83-18.06,1.83-27.13C398.41,109.86,341.37,0,199.2,0Z"/>
  </g>
</svg>