<svg width="284" height="284" viewBox="0 0 284 284" fill="none" xmlns="http://www.w3.org/2000/svg">
<path d="M97.0469 253.128C75.5378 259.793 51.8354 244.128 42.2695 224.713C35.6045 211.185 33.6093 195.138 35.93 180.138C36.2272 178.214 36.5951 176.261 36.3262 174.336C36.0008 171.959 30.9065 167.558 26.8028 163.922C24.8925 162.223 21.9633 163.483 21.7086 166.115C20.0529 183.266 18.2699 200.529 23.4066 217.369C27.7509 231.619 35.8168 244.581 46.8685 253.962C49.9109 256.538 53.1514 258.844 56.5617 260.84C71.8162 269.741 89.8725 272.288 106.768 267.802C106.768 267.802 119.334 283.042 119.334 283.028C119.334 283.028 120.863 251.727 120.863 251.713L85.2027 236.331C85.2027 236.331 97.0044 253.099 97.0327 253.142L97.0469 253.128Z" fill="#53D8C8"/>
<path d="M194.305 29.9712C215.842 23.377 239.488 39.155 248.983 58.598C255.605 72.1544 257.544 88.2013 255.167 103.201C254.87 105.126 254.488 107.078 254.742 109.003C255.068 111.38 260.148 115.809 264.237 119.46C266.148 121.172 269.077 119.913 269.346 117.281C271.058 100.144 272.912 82.8806 267.832 66.0272C263.53 51.7491 255.521 38.7729 244.497 29.3485C241.469 26.759 238.228 24.4383 234.818 22.443C219.606 13.4856 201.536 10.8677 184.64 15.2828C184.626 15.2828 172.116 0 172.116 0L170.475 31.3013L206.078 46.8247C206.078 46.8247 194.333 29.9995 194.305 29.9712Z" fill="#12E5CC"/>
<path d="M156.678 280.58L1.33152 132.875C-0.29581 131.333 -0.437317 128.672 1.02021 126.946L101.25 8.17905C102.636 6.52342 105.028 6.38191 106.584 7.86774L262.058 155.686C263.615 157.158 263.742 159.705 262.355 161.346L162.013 280.255C160.626 281.91 158.234 282.052 156.678 280.566V280.58Z" fill="#4AC8EE"/>
<path d="M2.4353 129.337L22.9255 124.441L123.07 6.56592L103.839 12.8771L2.4353 129.337Z" fill="url(#paint0_linear_333_3172)"/>
<path d="M183.366 276.575L26.0953 127.045C23.9868 125.036 23.8029 121.583 25.6991 119.347L124.216 2.58964C126.112 0.339676 129.353 0.155717 131.476 2.16512L278.402 141.861C284.119 147.295 284.6 156.62 279.478 162.691L183.366 276.59V276.575Z" fill="url(#paint1_linear_333_3172)"/>
<path d="M160.598 282.943L183.38 276.576L22.5293 123.536C22.218 123.239 21.7793 123.125 21.369 123.239L2.0391 128.644C0.355168 129.111 -0.168408 131.389 1.13346 132.62L158.574 282.42C159.126 282.943 159.876 283.141 160.598 282.929V282.943Z" fill="#3467B2"/>
<path d="M15.3408 121.13L14.6898 120.521L106.287 11.9856L106.938 12.6082L15.3408 121.13Z" fill="url(#paint2_linear_333_3172)"/>
<path d="M35.9724 103.541L35.0668 102.677L113.66 9.55176L114.565 10.415L35.9724 103.541Z" fill="url(#paint3_linear_333_3172)"/>
<path d="M79.1744 177.138L55.854 184.624L29.746 159.705L52.571 152.233L79.1744 177.138Z" fill="#2B5C8A"/>
<path d="M156.409 250.92L133.159 258.293L107.051 233.373L130.089 225.916L156.409 250.92Z" fill="#2B5C8A"/>
<defs>
<linearGradient id="paint0_linear_333_3172" x1="13.4728" y1="124.187" x2="114.749" y2="11.4904" gradientUnits="userSpaceOnUse">
<stop stop-color="#D2D2D2"/>
<stop offset="0.08" stop-color="#D5D5D5"/>
<stop offset="0.63" stop-color="#EAEBEB"/>
<stop offset="0.99" stop-color="#F2F3F3"/>
</linearGradient>
<linearGradient id="paint1_linear_333_3172" x1="175.555" y1="262.17" x2="132.509" y2="16.4998" gradientUnits="userSpaceOnUse">
<stop stop-color="#4E90CC"/>
<stop offset="0.1" stop-color="#599ED4"/>
<stop offset="0.29" stop-color="#6DB6E2"/>
<stop offset="0.49" stop-color="#7BC7EC"/>
<stop offset="0.72" stop-color="#83D1F2"/>
<stop offset="0.99" stop-color="#86D5F4"/>
</linearGradient>
<linearGradient id="paint2_linear_333_3172" x1="99.2255" y1="12.0383" x2="-45.2134" y2="127.075" gradientUnits="userSpaceOnUse">
<stop stop-color="#BFBFBF"/>
<stop offset="0.2" stop-color="#D4D4D4"/>
<stop offset="0.43" stop-color="#E4E5E5"/>
<stop offset="0.68" stop-color="#EEEFEF"/>
<stop offset="0.99" stop-color="#F2F3F3"/>
</linearGradient>
<linearGradient id="paint3_linear_333_3172" x1="100.794" y1="8.08051" x2="-36.2774" y2="115.179" gradientUnits="userSpaceOnUse">
<stop stop-color="#BFBFBF"/>
<stop offset="0.2" stop-color="#D4D4D4"/>
<stop offset="0.43" stop-color="#E4E5E5"/>
<stop offset="0.68" stop-color="#EEEFEF"/>
<stop offset="0.99" stop-color="#F2F3F3"/>
</linearGradient>
</defs>
</svg>
