<svg width="512" height="512" viewBox="0 0 512 512" fill="none" xmlns="http://www.w3.org/2000/svg">
<circle cx="256" cy="256" r="256" fill="#313B3E"/>
<circle cx="256.5" cy="256.5" r="239.5" stroke="#57FFEB" stroke-width="6"/>
<path d="M256.994 75C170.652 75 136 141.662 136 188.549C136 257.032 189.694 307.577 202 360.702H262.546V284.234L285.068 291.88L270.788 255.994L256.508 220.108L242.228 255.994L227.948 291.88L251.454 283.9V345.338H207.922C196.94 297.929 149.023 252.814 149.023 191.698C149.023 149.854 179.945 90.364 257.006 90.364C334.067 90.364 364.99 149.86 364.99 191.698C364.99 199.113 364.273 206.522 362.924 213.816C361.618 220.891 359.717 227.851 357.391 234.653C355.083 241.388 352.356 247.972 349.361 254.428C346.391 260.836 343.166 267.129 339.825 273.348C336.533 279.477 333.137 285.545 329.76 291.631C326.48 297.541 323.231 303.463 320.151 309.483C310.554 328.257 303.685 348.263 301.043 369.155C301.024 369.312 301.043 369.761 300.909 369.889C300.909 370.939 300.059 371.788 299.008 371.788H218.625C209.483 371.788 202.006 373.742 202.006 382.874V393.96C202.006 403.092 209.483 405.046 218.625 405.046H230.663H289.836H299.002C300.052 405.046 300.903 405.896 300.903 406.946V414.233C300.903 415.283 300.052 416.132 299.002 416.132H192.014L195.343 406.345L176.046 414.009L156.749 421.672L176.046 429.336L195.343 437L192.014 427.212H295.375C304.517 427.212 311.994 425.259 311.994 416.126V405.04C311.994 395.908 304.517 393.954 295.375 393.954H283.337H214.992C213.941 393.954 213.091 393.105 213.091 392.055V384.767C213.091 383.718 213.941 382.868 214.992 382.868H295.375C304.438 382.868 311.866 380.945 311.994 372.006C312.018 370.198 312.073 368.384 312.164 366.576C312.498 359.761 313.355 352.977 315.298 346.424C317.898 337.662 321.949 329.173 326.037 321.024C329.031 315.059 332.22 309.191 335.47 303.36C338.853 297.28 342.303 291.242 345.692 285.168C349.167 278.943 352.586 272.687 355.83 266.34C359.104 259.926 362.208 253.415 364.996 246.771C367.796 240.108 370.28 233.306 372.309 226.364C374.35 219.374 375.923 212.238 376.888 205.017C377.617 199.562 378 194.059 378 188.555C377.994 141.662 343.348 75 256.994 75Z" fill="#57FFEB"/>
</svg>
