<svg width="342" height="513" viewBox="0 0 342 513" fill="none" xmlns="http://www.w3.org/2000/svg">
<path d="M170.961 0.0280762C48.9618 0.0280762 -0.000732422 94.3143 -0.000732422 160.63C-0.000732422 257.491 75.8677 328.983 93.2556 404.122H178.805V295.966L210.628 306.78L190.451 256.024L170.274 205.267L150.097 256.024L129.92 306.78L163.133 295.494V382.391H101.623C86.1065 315.337 18.3999 251.527 18.3999 165.085C18.3999 105.901 62.0929 21.7587 170.978 21.7587C279.863 21.7587 323.556 105.909 323.556 165.085C323.556 175.572 322.543 186.052 320.638 196.368C318.792 206.375 316.106 216.219 312.819 225.839C309.558 235.366 305.704 244.678 301.473 253.81C297.276 262.873 292.719 271.772 287.999 280.569C283.347 289.238 278.55 297.82 273.778 306.428C269.143 314.787 264.552 323.164 260.2 331.678C246.64 358.232 236.933 386.528 233.2 416.077C233.174 416.3 233.2 416.935 233.011 417.115C233.011 418.6 231.81 419.802 230.325 419.802H116.746C103.829 419.802 93.2642 422.565 93.2642 435.482V451.162C93.2642 464.078 103.829 466.842 116.746 466.842H133.756H217.366H230.316C231.801 466.842 233.003 468.043 233.003 469.528V479.835C233.003 481.32 231.801 482.522 230.316 482.522H79.1461L83.8493 468.678L56.583 479.518L29.3167 490.358L56.583 501.197L83.8493 512.037L79.1461 498.193H225.193C238.109 498.193 248.674 495.43 248.674 482.513V466.833C248.674 453.917 238.109 451.153 225.193 451.153H208.182H111.613C110.129 451.153 108.927 449.952 108.927 448.467V438.159C108.927 436.675 110.129 435.473 111.613 435.473H225.193C237.998 435.473 248.494 432.752 248.674 420.111C248.709 417.553 248.786 414.987 248.915 412.429C249.387 402.791 250.597 393.196 253.343 383.927C257.016 371.534 262.741 359.527 268.517 348.001C272.748 339.565 277.254 331.266 281.845 323.018C286.626 314.418 291.5 305.879 296.289 297.288C301.198 288.482 306.03 279.634 310.613 270.657C315.239 261.585 319.625 252.376 323.564 242.979C327.521 233.555 331.031 223.934 333.897 214.116C336.781 204.229 339.004 194.136 340.369 183.923C341.398 176.208 341.939 168.423 341.939 160.639C341.931 94.3143 292.977 0.0280762 170.961 0.0280762Z" fill="#57FFEB"/>
</svg>
