<svg width="77" height="75" viewBox="0 0 77 75" fill="none" xmlns="http://www.w3.org/2000/svg">
<path d="M26.1885 67.0763C20.3833 68.8425 13.986 64.6914 11.4042 59.5467C9.60533 55.9619 9.06681 51.7096 9.69317 47.7348C9.77337 47.2248 9.87268 46.7073 9.80011 46.1974C9.71227 45.5674 8.33734 44.4012 7.22975 43.4375C6.71415 42.9875 5.92357 43.3212 5.85482 44.0187C5.40797 48.5635 4.92674 53.1383 6.31313 57.6005C7.48564 61.3766 9.66262 64.8114 12.6455 67.2975C13.4666 67.98 14.3412 68.5912 15.2616 69.12C19.3788 71.4786 24.2522 72.1536 28.8124 70.9649C28.8124 70.9649 32.2038 75.0034 32.2038 74.9997C32.2038 74.9997 32.6163 66.7051 32.6163 66.7013L22.9918 62.6253C22.9918 62.6253 26.1771 67.0688 26.1847 67.0801L26.1885 67.0763Z" fill="#6CA7DA"/>
<path d="M52.4394 7.9421C58.2523 6.19469 64.6343 10.3757 67.197 15.528C68.9844 19.1203 69.5077 23.3726 68.866 27.3474C68.7858 27.8574 68.6827 28.3748 68.7515 28.8848C68.8393 29.5148 70.2104 30.6885 71.3142 31.6559C71.8298 32.1096 72.6204 31.7759 72.6929 31.0784C73.1551 26.5374 73.6554 21.9627 72.2843 17.4966C71.1232 13.7131 68.9615 10.2745 65.9863 7.77711C65.169 7.09089 64.2944 6.47593 63.374 5.9472C59.2683 3.57357 54.3911 2.87986 49.8309 4.0498C49.8271 4.0498 46.4508 0 46.4508 0L46.0078 8.29459L55.6171 12.4081C55.6171 12.4081 52.4471 7.9496 52.4394 7.9421Z" fill="#12E5CC"/>
<path d="M42.2837 74.3514L0.355916 35.2109C-0.083298 34.8022 -0.121491 34.0972 0.271893 33.6397L27.3237 2.16754C27.698 1.72881 28.3434 1.69131 28.7635 2.08504L70.7257 41.2556C71.1458 41.6456 71.1802 42.3205 70.8059 42.7555L43.7235 74.2652C43.3493 74.7039 42.7038 74.7414 42.2837 74.3477V74.3514Z" fill="#4AC8EE"/>
<path d="M0.654297 34.2736L6.18458 32.9762L33.2134 1.74023L28.0231 3.41265L0.654297 34.2736Z" fill="url(#paint0_linear_290_2369)"/>
<path d="M49.4862 73.2896L7.03904 33.6654C6.46997 33.1329 6.42032 32.2179 6.9321 31.6255L33.5217 0.685767C34.0335 0.0895466 34.9081 0.0407991 35.481 0.573272L75.1363 37.5914C76.6793 39.0313 76.8092 41.5025 75.4266 43.1111L49.4862 73.2934V73.2896Z" fill="url(#paint1_linear_290_2369)"/>
<path d="M43.3416 74.9773L49.4906 73.2899L6.07718 32.7357C5.99315 32.6569 5.87476 32.6269 5.764 32.6569L0.546898 34.0894C0.0924067 34.2131 -0.0489057 34.8168 0.302466 35.1431L42.7955 74.8386C42.9444 74.9773 43.1469 75.0298 43.3416 74.9736V74.9773Z" fill="#3467B2"/>
<path d="M4.13662 32.0981L3.96094 31.9368L28.683 3.17578L28.8586 3.34077L4.13662 32.0981Z" fill="url(#paint2_linear_290_2369)"/>
<path d="M9.70537 27.4375L9.46094 27.2088L30.6731 2.53125L30.9175 2.75999L9.70537 27.4375Z" fill="url(#paint3_linear_290_2369)"/>
<path d="M21.366 46.9405L15.0719 48.9241L8.02539 42.3207L14.1858 40.3408L21.366 46.9405Z" fill="#2B5C8A"/>
<path d="M42.2112 66.4921L35.9362 68.4458L28.8896 61.8424L35.1074 59.8662L42.2112 66.4921Z" fill="#2B5C8A"/>
<path d="M53.6875 27.8224C53.7944 28.1299 53.8517 28.4524 53.9357 28.7636C53.9472 28.8049 54.0236 28.7711 54.035 28.8124C54.4857 30.5636 54.4895 33.3834 53.8861 35.0933C53.5996 35.9033 52.5379 37.6995 51.7969 38.1119C56.086 30.916 51.1897 21.5265 42.6384 20.7653C42.6231 20.7653 42.604 20.7653 42.5887 20.7653C41.821 20.7053 41.0648 20.7016 40.2972 20.7653C40.2819 20.7653 40.2628 20.7653 40.2475 20.7653C39.1781 20.8628 37.8758 21.1628 36.9133 21.6353C34.1596 22.6965 31.7 25.1488 30.7414 27.8674C30.2945 28.8274 30.0119 30.2073 29.9432 31.2498C29.9432 31.2648 29.9432 31.2835 29.9432 31.2985C29.7751 34.2684 30.5046 37.0882 32.3837 39.4656C31.7191 39.1019 30.4435 37.6245 30.0425 36.9757C29.4734 36.057 28.8547 34.3584 28.6981 33.3047C28.4842 31.8572 28.6523 29.4536 29.0456 28.0362C29.2213 27.41 29.5765 26.8062 29.7408 26.1763C30.0119 25.8463 30.6154 24.5264 31.7306 23.3002C34.0412 20.9753 35.5422 20.2628 38.7236 19.6029C38.7618 19.5954 38.8802 19.4416 39.0712 19.4079C39.7587 19.2879 41.9853 19.2504 42.7033 19.3104C45.7778 19.5691 49.0509 21.249 51.0904 23.4914C51.5372 23.9826 52.7097 25.5801 52.9809 26.1013C53.0611 26.2513 53.0153 26.405 53.0306 26.4388C53.2559 26.8962 53.508 27.335 53.676 27.8149L53.6875 27.8224Z" fill="#FCF27A"/>
<path d="M42.5851 20.7686C42.5851 20.7686 42.6194 20.7686 42.6347 20.7686C42.6653 20.9373 43.4329 20.9148 43.9027 21.0085C51.8238 22.621 55.75 31.6918 51.545 38.3777C51.1249 39.0451 50.3954 39.7351 50.3993 39.8289C50.3993 39.8626 50.4604 39.8551 50.4986 39.8514C49.7309 40.7326 48.8754 41.4713 47.9091 42.1462C47.7754 42.8175 47.4546 45.4048 47.3133 45.7236C47.1834 46.0085 46.7557 46.1998 46.4654 46.3048C46.3661 47.8047 46.496 49.3909 45.9193 50.8233C45.4839 51.8957 43.9524 53.5119 42.8562 53.9656C40.6983 54.8581 38.8384 53.0544 37.7041 51.4533C36.8906 49.9083 36.8638 48.1497 36.8065 46.451C35.4316 46.1923 35.6646 43.5637 35.2139 42.0525C34.2591 41.4188 33.4189 40.6688 32.6741 39.8064C30.6537 37.1552 29.9013 34.5979 29.9357 31.3018C29.9357 31.2868 29.9357 31.268 29.9357 31.253C29.9701 31.253 30.0235 31.268 30.035 31.2305C30.0923 31.0693 30.0846 29.7044 30.7301 27.8707C31.6925 25.1483 34.1483 22.6997 36.902 21.6385C38.6512 20.9635 39.4418 21.046 40.2133 20.8661C40.2515 20.8586 40.24 20.8023 40.24 20.7686C40.2553 20.7686 40.2744 20.7686 40.2897 20.7686H42.5812H42.5851Z" fill="#232C34"/>
<path d="M51.7972 38.1163C51.4268 38.7388 50.9837 39.305 50.5025 39.8562C50.4643 39.8562 50.4032 39.8637 50.4032 39.8337C50.4032 39.7437 51.1289 39.0538 51.549 38.3826C55.754 31.6966 51.8316 22.6258 43.9067 21.0134C43.4369 20.9197 42.6654 20.9384 42.6387 20.7734C51.1938 21.5346 56.0863 30.9242 51.7972 38.1201V38.1163Z" fill="#252923"/>
<path d="M32.6817 39.8073C32.5824 39.6911 32.4793 39.5898 32.3838 39.4698C30.5047 37.0924 29.7753 34.2726 29.9433 31.3027C29.9089 34.5988 30.6613 37.1562 32.6817 39.8073Z" fill="#282819"/>
<path d="M45.3506 47.3445C45.4804 47.3745 45.4346 48.027 45.4002 48.0682C45.2933 48.1957 43.6281 48.687 42.3143 49.3732C40.3168 50.4156 39.32 51.5106 39.129 51.4993C39.0985 51.4993 38.7051 51.1168 38.7051 51.0868C38.7051 50.8656 41.1188 49.3282 41.4664 49.1294C41.8827 48.8932 45.1405 47.2958 45.3506 47.3408V47.3445Z" fill="#DADFC5"/>
<path d="M44.0056 46.718C44.1813 46.7067 44.3799 46.7105 44.3035 46.7667C42.5047 47.4567 40.786 48.2854 39.1743 49.3279C38.8267 49.5528 38.3035 50.1003 38.2042 49.9316C38.1813 49.7628 37.9674 49.4629 38.0552 49.3016C38.1202 49.1854 40.0565 48.0117 40.3201 47.8767C41.3131 47.3705 42.8981 46.7967 44.0056 46.718Z" fill="#DADFC5"/>
<path d="M45.3003 49.1807C45.3996 49.2482 45.1017 49.9494 45.0024 50.0506C43.7879 50.5006 42.3862 51.4193 41.2672 51.888C41.1755 51.9255 39.9839 52.4093 39.9992 52.2518C41.5498 50.9056 43.425 50.0169 45.3003 49.1844V49.1807Z" fill="#DADFC5"/>
<path d="M37.834 46.6689L39.8505 46.9839C39.1962 47.3464 38.5405 47.7089 37.8836 48.0714L37.834 46.6689Z" fill="#DADFC5"/>
<path d="M44.3537 51.4492C44.7166 51.483 43.2538 52.5292 42.7344 52.4392C43.2742 52.1092 43.8139 51.7792 44.3537 51.4492Z" fill="#DADFC5"/>
<path d="M29.9434 31.2534C30.0083 30.211 30.2909 28.831 30.7416 27.8711C30.0923 29.7048 30.1038 31.0659 30.0465 31.2309C30.0312 31.2684 29.9816 31.2534 29.9472 31.2534H29.9434Z" fill="#282819"/>
<path d="M40.2482 20.7686C40.2482 20.8023 40.2596 20.8548 40.2214 20.8661C39.45 21.046 38.6632 20.9635 36.9102 21.6385C37.8726 21.166 39.175 20.866 40.2444 20.7686H40.2482Z" fill="#282819"/>
<path d="M42.5845 20.7691H40.293C41.0606 20.7053 41.8169 20.7091 42.5845 20.7691Z" fill="#282819"/>
<path d="M43.3339 21.8294C43.7464 22.0694 44.3193 22.1257 44.7508 22.3132C45.4154 22.5981 47.3479 23.7793 46.4428 24.1018C46.1869 24.1918 45.381 23.8281 45.0487 23.7643C43.0856 23.3744 41.1531 23.2356 39.1747 23.6668C38.2619 23.8656 37.2536 24.4468 37.0092 24.1731C36.4478 23.5393 38.789 22.2944 39.274 22.1182C39.8775 21.9044 40.5229 21.8332 41.1416 21.6832C42.0048 21.6607 42.4898 21.6944 43.3339 21.8294Z" fill="#FCEFBA"/>
<path d="M41.1407 21.6875C40.522 21.8375 39.8765 21.905 39.2731 22.1225C38.788 22.295 36.4468 23.5437 37.0083 24.1774C37.2527 24.4511 38.261 23.8699 39.1738 23.6712C41.1522 23.2399 43.0847 23.3787 45.0478 23.7686C45.3801 23.8361 46.1859 24.1999 46.4418 24.1061C47.347 23.7836 45.4144 22.6025 44.7499 22.3175C44.3145 22.13 43.7454 22.0737 43.333 21.8337C48.1338 22.5987 51.9797 26.7085 52.3426 31.3995C52.396 32.0745 52.396 32.5132 52.3426 33.1882C52.2509 34.3431 51.9797 35.2881 51.594 36.3755C50.9142 37.9204 49.8868 39.3679 48.5806 40.4816C48.2063 40.8003 47.5532 41.1453 47.263 41.449C47.2553 41.4565 47.1789 41.419 47.0644 41.569L46.4686 45.3376C46.4342 45.4013 46.1592 45.5101 46.0714 45.5551C45.3533 45.7688 44.0968 45.9338 43.333 45.99C43.3177 45.99 43.2986 45.99 43.2833 45.99C42.1223 46.0688 40.9612 46.0613 39.8001 45.99C39.7505 45.99 39.7008 45.99 39.6512 45.99C38.662 45.9188 37.6957 45.7913 36.7638 45.4351L36.0687 41.569C26.7077 35.3106 30.8364 21.9762 41.1445 21.6875H41.1407Z" fill="#FFE402"/>
<path d="M52.3428 31.3994C51.9762 26.7083 48.134 22.5948 43.3332 21.8336C42.4891 21.6986 42.0079 21.6648 41.1409 21.6873C30.829 21.9761 26.7042 35.3104 36.0652 41.5688L36.7603 45.4349C37.6922 45.7911 38.6584 45.9186 39.6476 45.9899C39.3115 46.2299 36.7603 45.5961 36.661 45.4837L35.9124 41.5688C29.9123 37.7215 28.8048 29.1607 34.1937 24.3422C38.4178 20.5661 44.7463 20.6561 48.9284 24.4397C50.8075 26.1384 52.3619 28.8757 52.339 31.3994H52.3428Z" fill="#252923"/>
<path d="M47.2667 41.4482C46.9306 42.1195 46.7053 45.2281 46.4456 45.4605C46.2699 45.5655 46.1209 45.543 46.0713 45.558C46.1591 45.513 46.4341 45.4043 46.4685 45.3405L47.0643 41.572C47.1789 41.422 47.2553 41.4595 47.2629 41.452L47.2667 41.4482Z" fill="#282819"/>
<path d="M43.2835 45.9902C43.2835 46.024 43.2988 46.0727 43.2568 46.0877C43.0773 46.1477 40.0792 46.1477 39.8233 46.0877C39.7851 46.0802 39.7965 46.024 39.7965 45.9902C40.9576 46.0615 42.1186 46.069 43.2797 45.9902H43.2835Z" fill="#282819"/>
<path d="M51.5977 36.3758C51.9796 35.2884 52.2507 34.3434 52.3462 33.1885C52.4226 34.2684 52.0369 35.3821 51.5977 36.3758Z" fill="#282819"/>
<path d="M46.0714 45.5547C45.594 45.7872 43.9059 46.0984 43.333 45.9897C44.0969 45.9334 45.3534 45.7684 46.0714 45.5547Z" fill="#282819"/>
<path d="M36.0384 24.0043C36.3706 23.9481 36.7564 24.4543 36.7106 24.6568C36.6915 24.7355 35.729 25.7967 35.5419 25.793C35.4922 25.793 34.8735 25.5718 34.969 25.1405C34.9843 25.0655 35.8703 24.0343 36.0384 24.0043Z" fill="#FCEFBA"/>
<path d="M47.0918 24.0533C47.2598 24.0308 48.4094 24.6908 48.3101 25.0432C48.1268 25.7145 46.1713 24.1695 47.0918 24.0533Z" fill="#FCEFBA"/>
<path d="M39.647 32.366C39.6814 32.306 39.6852 32.3022 39.7463 32.2685C40.3115 32.2272 43.1531 32.1672 43.3555 32.2197C43.5579 32.2722 43.6457 32.621 43.5808 32.7747C43.5083 32.9397 40.0518 32.9435 39.8723 32.8947C39.6241 32.831 39.6012 32.5685 39.647 32.3622V32.366Z" fill="#232C34"/>
<path d="M39.6471 32.3663C39.6013 32.5725 39.6204 32.835 39.8725 32.8988C40.052 32.9438 43.5084 32.9438 43.581 32.7788C43.6497 32.625 43.5619 32.2763 43.3556 32.2238C43.1532 32.1713 40.3155 32.2276 39.7464 32.2726C39.7502 32.2726 39.7808 32.1863 39.8228 32.1751C39.9985 32.1376 43.2831 32.1263 43.4549 32.1751C43.707 32.2463 43.7719 32.8163 43.5542 32.9475C43.3976 33.045 40.0023 33.0413 39.819 32.9963C39.502 32.9138 39.4905 32.6213 39.6433 32.3663H39.6471Z" fill="#252923"/>
<path d="M38.6054 32.171C39.965 33.3447 36.7034 32.756 36.5659 33.2585L38.0096 39.5881C38.0936 39.7006 40.4233 40.1619 40.4997 39.9744L39.056 34.2709C38.9835 34.1772 39.1974 33.8772 39.2546 33.8584C39.5869 33.7497 39.6939 33.9709 39.8008 34.2222C40.0032 34.6909 40.9504 38.9244 41.1948 39.9256C41.2979 40.0944 41.6188 40.0831 41.7906 39.9969C41.7906 39.9969 41.8326 39.9556 41.8403 39.9481C42.0389 39.7194 43.1159 34.8409 43.4329 34.1509C43.6773 33.6184 44.2579 33.8509 44.1815 34.3684L42.5889 39.9256C42.6423 40.1844 43.0968 39.9631 43.2343 39.9481C43.5437 39.9181 45.1019 39.7606 45.2241 39.5844C45.5373 37.9157 46.0911 36.2621 46.2706 34.5822C46.3623 34.1397 46.5303 33.7084 46.5685 33.2547C46.4501 33.0335 43.4405 33.2847 44.4297 32.3135C44.7964 32.201 47.3897 32.5198 47.466 32.6772C46.9339 35.1421 46.403 37.607 45.8734 40.0719L45.1783 40.4581C45.1172 40.9906 44.846 43.7729 44.7811 43.9379C44.7658 43.9717 44.6894 44.0842 44.6551 44.1067C43.8683 44.3767 38.8956 44.5154 38.6054 43.9867C38.4793 43.5105 38.1547 40.5668 38.0592 40.4094C37.9676 40.2631 37.4825 40.3156 37.3641 40.0231C36.9134 37.5745 36.161 35.1859 35.7715 32.726C35.8899 32.3848 37.4558 32.5348 37.7117 32.2685C37.9255 32.2498 38.5634 32.1673 38.6092 32.171H38.6054Z" fill="#232C34"/>
<path d="M37.7081 32.2686C37.4522 32.5349 35.8863 32.3849 35.7679 32.7261C36.1575 35.186 36.9099 37.5709 37.3605 40.0233C37.4789 40.3157 37.9678 40.2632 38.0556 40.4095C38.1511 40.5632 38.4796 43.5106 38.6018 43.9868C38.8921 44.5155 43.8647 44.3768 44.6515 44.1068C44.6859 44.0843 44.7623 43.9718 44.7775 43.9381C44.8425 43.7731 45.1136 40.9907 45.1747 40.4582L45.8698 40.072C46.402 37.6071 46.9329 35.1422 47.4625 32.6774C47.3861 32.5199 44.7928 32.2049 44.4262 32.3136C44.6324 32.1111 45.316 32.2386 45.6445 32.2649C45.9271 32.2874 47.4854 32.4674 47.5618 32.6774C47.3479 33.5698 46.1754 40.012 45.8928 40.2895C45.8431 40.3382 45.4153 40.372 45.3962 40.387C45.1976 40.5107 44.9723 43.8031 44.873 44.0356C44.7699 44.2793 43.7731 44.3693 43.5057 44.3993C42.845 44.4668 38.8157 44.5605 38.5521 44.0843C38.407 43.6193 38.1015 40.6645 38.006 40.507C37.9143 40.3607 37.4293 40.4132 37.3109 40.1207C37.2269 39.157 35.5922 33.1461 35.6686 32.7749C35.745 32.4111 37.3223 32.2986 37.7081 32.2686Z" fill="#252923"/>
<path d="M39.2513 33.8622C39.194 33.881 38.9801 34.1772 39.0527 34.2747L40.4963 39.9782C40.4199 40.1657 38.094 39.7044 38.0062 39.5919L36.5625 33.2623C36.7 32.7598 39.9655 33.3485 38.602 32.1748C39.1787 32.2386 39.0221 32.8723 38.9266 32.9473C38.7777 33.0673 36.7114 33.1423 36.6618 33.2623L38.1055 39.5432C38.2086 39.6894 40.0724 39.9482 40.397 39.9782C40.3054 39.127 38.9037 34.3797 39.003 34.0347C39.0259 33.9597 39.171 33.8922 39.2513 33.866V33.8622Z" fill="#252923"/>
<path d="M41.7909 40.0015C41.6152 40.0877 41.2944 40.099 41.1951 39.9302C40.9506 38.929 40.0035 34.6955 39.801 34.2268C39.6941 33.9793 39.5872 33.7543 39.2549 33.863C39.5451 33.7618 39.7056 33.7693 39.8507 34.0318C40.0798 34.4443 41.1569 39.5628 41.2944 39.829C41.4204 40.0765 41.535 39.9865 41.7909 39.9977V40.0015Z" fill="#252923"/>
<path d="M43.2344 39.9519V39.9032C43.5055 39.8732 45.0829 39.6744 45.1746 39.5394C45.5145 37.882 45.927 36.2434 46.2707 34.5859C46.0912 36.2659 45.5374 37.9195 45.2242 39.5882C45.102 39.7644 43.5399 39.9219 43.2344 39.9519Z" fill="#282819"/>
<path d="M43.2343 39.9036V39.9523C43.0968 39.9673 42.6423 40.1886 42.5889 39.9298L44.1815 34.3726C44.2617 33.8551 43.6812 33.6226 43.4329 34.1551H43.3833C43.685 33.5026 44.3381 33.7464 44.2808 34.4213C44.2579 34.7101 42.8524 39.0299 42.7607 40.0011C42.9059 39.9673 43.0892 39.9186 43.2343 39.9036Z" fill="#252923"/>
<path d="M41.8398 39.9525C42.0881 38.8763 43.1346 34.6877 43.3828 34.1553H43.4325C43.1155 34.849 42.0384 39.7237 41.8398 39.9525Z" fill="#282819"/>
<path d="M43.9797 43.4767C43.6894 43.5555 43.3801 43.5442 43.0822 43.5742C42.1197 43.6642 41.0045 43.6867 40.0458 43.5742C40.0306 43.5742 40.0115 43.5742 39.9962 43.5742C39.8587 43.5555 39.4157 43.5667 39.3507 43.4542C39.3698 43.1355 38.8161 40.6156 38.9765 40.5781C40.7486 40.8556 42.5818 40.8631 44.354 40.5781C44.4915 40.6906 43.9682 43.1055 43.9797 43.4767Z" fill="#F8D039"/>
<path d="M43.9793 43.4767C43.9678 43.1054 44.4911 40.6905 44.3536 40.5781C42.5814 40.863 40.752 40.8555 38.9761 40.5781C38.8157 40.6156 39.3656 43.1354 39.3504 43.4542C39.4191 43.5667 39.8621 43.5554 39.9958 43.5742C39.9271 43.6829 39.3504 43.5929 39.3236 43.5742C39.2052 43.4954 38.8042 41.028 38.8004 40.893C38.7775 40.1731 39.4382 40.6343 40.668 40.6756C41.9398 40.7205 43.204 40.6043 44.4529 40.5293C44.4491 40.9005 44.1015 43.3867 43.9793 43.4767Z" fill="#252923"/>
<path d="M43.0857 43.5752C43.0857 43.6089 43.0971 43.6577 43.0589 43.6727C42.9138 43.7214 40.3091 43.7289 40.0723 43.6727C40.0341 43.6652 40.0456 43.6089 40.0456 43.5752C41.0042 43.6877 42.1232 43.6652 43.0819 43.5752H43.0857Z" fill="#2F2D14"/>
<defs>
<linearGradient id="paint0_linear_290_2369" x1="3.63331" y1="32.9087" x2="30.4139" y2="2.55653" gradientUnits="userSpaceOnUse">
<stop stop-color="#D2D2D2"/>
<stop offset="0.08" stop-color="#D5D5D5"/>
<stop offset="0.63" stop-color="#EAEBEB"/>
<stop offset="0.99" stop-color="#F2F3F3"/>
</linearGradient>
<linearGradient id="paint1_linear_290_2369" x1="47.378" y1="69.4723" x2="36.1664" y2="4.30188" gradientUnits="userSpaceOnUse">
<stop stop-color="#4E90CC"/>
<stop offset="0.1" stop-color="#599ED4"/>
<stop offset="0.29" stop-color="#6DB6E2"/>
<stop offset="0.49" stop-color="#7BC7EC"/>
<stop offset="0.72" stop-color="#83D1F2"/>
<stop offset="0.99" stop-color="#86D5F4"/>
</linearGradient>
<linearGradient id="paint2_linear_290_2369" x1="26.777" y1="3.18974" x2="-11.6494" y2="34.3608" gradientUnits="userSpaceOnUse">
<stop stop-color="#BFBFBF"/>
<stop offset="0.2" stop-color="#D4D4D4"/>
<stop offset="0.43" stop-color="#E4E5E5"/>
<stop offset="0.68" stop-color="#EEEFEF"/>
<stop offset="0.99" stop-color="#F2F3F3"/>
</linearGradient>
<linearGradient id="paint3_linear_290_2369" x1="27.2006" y1="2.14138" x2="-9.27788" y2="31.1711" gradientUnits="userSpaceOnUse">
<stop stop-color="#BFBFBF"/>
<stop offset="0.2" stop-color="#D4D4D4"/>
<stop offset="0.43" stop-color="#E4E5E5"/>
<stop offset="0.68" stop-color="#EEEFEF"/>
<stop offset="0.99" stop-color="#F2F3F3"/>
</linearGradient>
</defs>
</svg>
