<svg width="51" height="50" viewBox="0 0 51 50" fill="none">
    <circle cx="25.3584" cy="25" r="24" fill="#4B585D" stroke="#4B585D" stroke-width="2"/>
    <path d="M20.232 35L19.44 33.032L24.576 27.248C24.848 26.96 25.128 26.632 25.416 26.264C25.72 25.88 26.008 25.488 26.28 25.088C26.552 24.688 26.768 24.296 26.928 23.912C27.104 23.512 27.192 23.136 27.192 22.784C27.192 22.272 27.088 21.84 26.88 21.488C26.688 21.12 26.4 20.84 26.016 20.648C25.648 20.456 25.2 20.36 24.672 20.36C24.208 20.36 23.752 20.496 23.304 20.768C22.856 21.04 22.448 21.424 22.08 21.92C21.712 22.416 21.424 22.992 21.216 23.648L19.224 22.4C19.496 21.472 19.904 20.68 20.448 20.024C21.008 19.352 21.672 18.84 22.44 18.488C23.224 18.136 24.072 17.96 24.984 17.96C25.928 17.96 26.768 18.16 27.504 18.56C28.24 18.944 28.816 19.488 29.232 20.192C29.648 20.88 29.856 21.68 29.856 22.592C29.856 22.96 29.816 23.336 29.736 23.72C29.656 24.104 29.528 24.504 29.352 24.92C29.176 25.32 28.952 25.744 28.68 26.192C28.408 26.624 28.08 27.08 27.696 27.56C27.328 28.04 26.904 28.544 26.424 29.072L22.608 33.224L22.128 32.504H30.384V35H20.232Z" fill="#F4FFFF"/>
</svg>
