<svg width="51" height="50" viewBox="0 0 51 50" fill="none">
    <circle cx="25.7178" cy="25" r="24" fill="#4B585D" stroke="#4B585D" stroke-width="2"/>
    <path d="M25.024 35.24C23.84 35.24 22.808 34.968 21.928 34.424C21.064 33.88 20.248 32.968 19.48 31.688L21.496 30.416C21.896 31.008 22.288 31.496 22.672 31.88C23.072 32.248 23.48 32.52 23.896 32.696C24.312 32.872 24.752 32.96 25.216 32.96C25.776 32.96 26.296 32.824 26.776 32.552C27.256 32.264 27.64 31.872 27.928 31.376C28.216 30.88 28.36 30.32 28.36 29.696C28.36 29.072 28.248 28.544 28.024 28.112C27.8 27.664 27.472 27.328 27.04 27.104C26.608 26.864 26.096 26.744 25.504 26.744C25.232 26.744 24.944 26.776 24.64 26.84C24.352 26.888 24.04 26.968 23.704 27.08C23.368 27.176 23 27.304 22.6 27.464L21.88 25.568L27.064 19.856L27.568 20.6H20.416V18.2H30.04L30.52 19.16L25.024 25.256L24.424 24.632C24.552 24.568 24.76 24.512 25.048 24.464C25.352 24.4 25.6 24.368 25.792 24.368C26.496 24.368 27.152 24.504 27.76 24.776C28.384 25.032 28.92 25.4 29.368 25.88C29.832 26.344 30.192 26.896 30.448 27.536C30.72 28.16 30.856 28.832 30.856 29.552C30.856 30.64 30.592 31.616 30.064 32.48C29.552 33.328 28.856 34 27.976 34.496C27.096 34.992 26.112 35.24 25.024 35.24Z" fill="#F4FFFF"/>
</svg>
