<svg width="24" height="24" viewBox="0 0 24 24" fill="none" xmlns="http://www.w3.org/2000/svg">
<circle cx="12" cy="12" r="12" fill="#4B585D"/>
<path d="M11.088 14.624L10.672 12.368C11.088 12.2613 11.4613 12.144 11.792 12.016C12.1227 11.8773 12.4053 11.7333 12.64 11.584C12.8853 11.424 13.088 11.2533 13.248 11.072C13.408 10.8907 13.5253 10.6987 13.6 10.496C13.6853 10.2827 13.728 10.0587 13.728 9.824C13.728 9.51467 13.6427 9.23733 13.472 8.992C13.312 8.74667 13.088 8.55467 12.8 8.416C12.512 8.27733 12.1867 8.208 11.824 8.208C11.3973 8.208 10.9813 8.35733 10.576 8.656C10.1813 8.944 9.84 9.35467 9.552 9.888L8.352 8.88C8.81067 8.176 9.35467 7.632 9.984 7.248C10.624 6.85333 11.2907 6.656 11.984 6.656C12.656 6.656 13.2587 6.79467 13.792 7.072C14.3253 7.34933 14.7467 7.728 15.056 8.208C15.376 8.688 15.536 9.22667 15.536 9.824C15.536 10.176 15.4613 10.5227 15.312 10.864C15.1733 11.1947 14.9707 11.5093 14.704 11.808C14.4373 12.1067 14.1227 12.3733 13.76 12.608C13.408 12.8427 13.0187 13.0347 12.592 13.184L12.32 14.624H11.088ZM10.528 16.976C10.528 16.624 10.6293 16.336 10.832 16.112C11.0347 15.888 11.3013 15.776 11.632 15.776C11.984 15.776 12.256 15.8827 12.448 16.096C12.64 16.2987 12.736 16.592 12.736 16.976C12.736 17.328 12.6347 17.616 12.432 17.84C12.2293 18.064 11.9627 18.176 11.632 18.176C11.28 18.176 11.008 18.0747 10.816 17.872C10.624 17.6587 10.528 17.36 10.528 16.976Z" fill="#F4FFFF"/>
</svg>
