<svg width="24" height="24" viewBox="0 0 24 24" fill="none" xmlns="http://www.w3.org/2000/svg">
<path d="M13.5821 14.928H13.0821V15.928H13.5821V14.928ZM16.3953 15.428V15.928H16.4133L16.4313 15.9267L16.3953 15.428ZM16.3953 10.2852L16.3953 9.78516H16.3953V10.2852ZM4.78902 9.9316C4.59376 10.1269 4.59376 10.4434 4.78902 10.6387L7.97101 13.8207C8.16627 14.016 8.48285 14.016 8.67811 13.8207C8.87337 13.6254 8.87337 13.3088 8.67811 13.1136L5.84968 10.2852L8.67811 7.45673C8.87337 7.26147 8.87337 6.94488 8.67811 6.74962C8.48285 6.55436 8.16627 6.55436 7.97101 6.74962L4.78902 9.9316ZM13.5821 15.928C13.5875 15.928 13.5929 15.928 13.5982 15.928C13.6035 15.928 13.6089 15.928 13.6142 15.928C13.6195 15.928 13.6248 15.928 13.6301 15.928C13.6354 15.928 13.6407 15.928 13.646 15.928C13.6513 15.928 13.6566 15.928 13.6618 15.928C13.6671 15.928 13.6724 15.928 13.6776 15.928C13.6828 15.928 13.6881 15.928 13.6933 15.928C13.6985 15.928 13.7037 15.928 13.7089 15.928C13.7141 15.928 13.7193 15.928 13.7245 15.928C13.7297 15.928 13.7349 15.928 13.74 15.928C13.7452 15.928 13.7503 15.928 13.7555 15.928C13.7606 15.928 13.7658 15.928 13.7709 15.928C13.776 15.928 13.7811 15.928 13.7862 15.928C13.7913 15.928 13.7964 15.928 13.8015 15.928C13.8066 15.928 13.8116 15.928 13.8167 15.928C13.8218 15.928 13.8268 15.928 13.8319 15.928C13.8369 15.928 13.8419 15.928 13.847 15.928C13.852 15.928 13.857 15.928 13.862 15.928C13.867 15.928 13.872 15.928 13.877 15.928C13.882 15.928 13.8869 15.928 13.8919 15.928C13.8969 15.928 13.9018 15.928 13.9067 15.928C13.9117 15.928 13.9166 15.928 13.9215 15.928C13.9265 15.928 13.9314 15.928 13.9363 15.928C13.9412 15.928 13.9461 15.928 13.951 15.928C13.9559 15.928 13.9607 15.928 13.9656 15.928C13.9705 15.928 13.9753 15.928 13.9802 15.928C13.985 15.928 13.9898 15.928 13.9947 15.928C13.9995 15.928 14.0043 15.928 14.0091 15.928C14.0139 15.928 14.0187 15.928 14.0235 15.928C14.0283 15.928 14.0331 15.928 14.0379 15.928C14.0426 15.928 14.0474 15.928 14.0521 15.928C14.0569 15.928 14.0616 15.928 14.0663 15.928C14.0711 15.928 14.0758 15.928 14.0805 15.928C14.0852 15.928 14.0899 15.928 14.0946 15.928C14.0993 15.928 14.104 15.928 14.1087 15.928C14.1133 15.928 14.118 15.928 14.1226 15.928C14.1273 15.928 14.1319 15.928 14.1366 15.928C14.1412 15.928 14.1458 15.928 14.1505 15.928C14.1551 15.928 14.1597 15.928 14.1643 15.928C14.1689 15.928 14.1735 15.928 14.178 15.928C14.1826 15.928 14.1872 15.928 14.1917 15.928C14.1963 15.928 14.2008 15.928 14.2054 15.928C14.2099 15.928 14.2145 15.928 14.219 15.928C14.2235 15.928 14.228 15.928 14.2325 15.928C14.237 15.928 14.2415 15.928 14.246 15.928C14.2505 15.928 14.255 15.928 14.2594 15.928C14.2639 15.928 14.2683 15.928 14.2728 15.928C14.2772 15.928 14.2817 15.928 14.2861 15.928C14.2905 15.928 14.2949 15.928 14.2994 15.928C14.3038 15.928 14.3082 15.928 14.3126 15.928C14.3169 15.928 14.3213 15.928 14.3257 15.928C14.3301 15.928 14.3344 15.928 14.3388 15.928C14.3431 15.928 14.3475 15.928 14.3518 15.928C14.3562 15.928 14.3605 15.928 14.3648 15.928C14.3691 15.928 14.3734 15.928 14.3777 15.928C14.382 15.928 14.3863 15.928 14.3906 15.928C14.3949 15.928 14.3991 15.928 14.4034 15.928C14.4077 15.928 14.4119 15.928 14.4162 15.928C14.4204 15.928 14.4246 15.928 14.4289 15.928C14.4331 15.928 14.4373 15.928 14.4415 15.928C14.4457 15.928 14.4499 15.928 14.4541 15.928C14.4583 15.928 14.4625 15.928 14.4667 15.928C14.4708 15.928 14.475 15.928 14.4791 15.928C14.4833 15.928 14.4874 15.928 14.4916 15.928C14.4957 15.928 14.4998 15.928 14.504 15.928C14.5081 15.928 14.5122 15.928 14.5163 15.928C14.5204 15.928 14.5245 15.928 14.5286 15.928C14.5326 15.928 14.5367 15.928 14.5408 15.928C14.5448 15.928 14.5489 15.928 14.5529 15.928C14.557 15.928 14.561 15.928 14.5651 15.928C14.5691 15.928 14.5731 15.928 14.5771 15.928C14.5811 15.928 14.5851 15.928 14.5891 15.928C14.5931 15.928 14.5971 15.928 14.6011 15.928C14.605 15.928 14.609 15.928 14.613 15.928C14.6169 15.928 14.6209 15.928 14.6248 15.928C14.6288 15.928 14.6327 15.928 14.6366 15.928C14.6405 15.928 14.6444 15.928 14.6484 15.928C14.6523 15.928 14.6562 15.928 14.66 15.928C14.6639 15.928 14.6678 15.928 14.6717 15.928C14.6756 15.928 14.6794 15.928 14.6833 15.928C14.6871 15.928 14.691 15.928 14.6948 15.928C14.6986 15.928 14.7025 15.928 14.7063 15.928C14.7101 15.928 14.7139 15.928 14.7177 15.928C14.7215 15.928 14.7253 15.928 14.7291 15.928C14.7329 15.928 14.7367 15.928 14.7404 15.928C14.7442 15.928 14.7479 15.928 14.7517 15.928C14.7554 15.928 14.7592 15.928 14.7629 15.928C14.7667 15.928 14.7704 15.928 14.7741 15.928C14.7778 15.928 14.7815 15.928 14.7852 15.928C14.7889 15.928 14.7926 15.928 14.7963 15.928C14.8 15.928 14.8036 15.928 14.8073 15.928C14.811 15.928 14.8146 15.928 14.8183 15.928C14.8219 15.928 14.8256 15.928 14.8292 15.928C14.8328 15.928 14.8364 15.928 14.8401 15.928C14.8437 15.928 14.8473 15.928 14.8509 15.928C14.8545 15.928 14.8581 15.928 14.8616 15.928C14.8652 15.928 14.8688 15.928 14.8724 15.928C14.8759 15.928 14.8795 15.928 14.883 15.928C14.8866 15.928 14.8901 15.928 14.8937 15.928C14.8972 15.928 14.9007 15.928 14.9042 15.928C14.9077 15.928 14.9112 15.928 14.9147 15.928C14.9182 15.928 14.9217 15.928 14.9252 15.928C14.9287 15.928 14.9322 15.928 14.9356 15.928C14.9391 15.928 14.9426 15.928 14.946 15.928C14.9494 15.928 14.9529 15.928 14.9563 15.928C14.9598 15.928 14.9632 15.928 14.9666 15.928C14.97 15.928 14.9734 15.928 14.9768 15.928C14.9802 15.928 14.9836 15.928 14.987 15.928C14.9904 15.928 14.9937 15.928 14.9971 15.928C15.0005 15.928 15.0038 15.928 15.0072 15.928C15.0105 15.928 15.0139 15.928 15.0172 15.928C15.0206 15.928 15.0239 15.928 15.0272 15.928C15.0305 15.928 15.0338 15.928 15.0371 15.928C15.0404 15.928 15.0437 15.928 15.047 15.928C15.0503 15.928 15.0536 15.928 15.0569 15.928C15.0601 15.928 15.0634 15.928 15.0666 15.928C15.0699 15.928 15.0731 15.928 15.0764 15.928C15.0796 15.928 15.0828 15.928 15.0861 15.928C15.0893 15.928 15.0925 15.928 15.0957 15.928C15.0989 15.928 15.1021 15.928 15.1053 15.928C15.1085 15.928 15.1117 15.928 15.1149 15.928C15.118 15.928 15.1212 15.928 15.1244 15.928C15.1275 15.928 15.1307 15.928 15.1338 15.928C15.137 15.928 15.1401 15.928 15.1432 15.928C15.1464 15.928 15.1495 15.928 15.1526 15.928C15.1557 15.928 15.1588 15.928 15.1619 15.928C15.165 15.928 15.1681 15.928 15.1712 15.928C15.1743 15.928 15.1773 15.928 15.1804 15.928C15.1835 15.928 15.1865 15.928 15.1896 15.928C15.1926 15.928 15.1957 15.928 15.1987 15.928C15.2017 15.928 15.2048 15.928 15.2078 15.928C15.2108 15.928 15.2138 15.928 15.2168 15.928C15.2198 15.928 15.2228 15.928 15.2258 15.928C15.2288 15.928 15.2318 15.928 15.2348 15.928C15.2377 15.928 15.2407 15.928 15.2437 15.928C15.2466 15.928 15.2496 15.928 15.2525 15.928C15.2555 15.928 15.2584 15.928 15.2613 15.928C15.2643 15.928 15.2672 15.928 15.2701 15.928C15.273 15.928 15.2759 15.928 15.2788 15.928C15.2817 15.928 15.2846 15.928 15.2875 15.928C15.2904 15.928 15.2932 15.928 15.2961 15.928C15.299 15.928 15.3018 15.928 15.3047 15.928C15.3075 15.928 15.3104 15.928 15.3132 15.928C15.3161 15.928 15.3189 15.928 15.3217 15.928C15.3245 15.928 15.3274 15.928 15.3302 15.928C15.333 15.928 15.3358 15.928 15.3386 15.928C15.3414 15.928 15.3442 15.928 15.3469 15.928C15.3497 15.928 15.3525 15.928 15.3553 15.928C15.358 15.928 15.3608 15.928 15.3635 15.928C15.3663 15.928 15.369 15.928 15.3718 15.928C15.3745 15.928 15.3772 15.928 15.3799 15.928C15.3827 15.928 15.3854 15.928 15.3881 15.928C15.3908 15.928 15.3935 15.928 15.3962 15.928C15.3989 15.928 15.4016 15.928 15.4042 15.928C15.4069 15.928 15.4096 15.928 15.4122 15.928C15.4149 15.928 15.4176 15.928 15.4202 15.928C15.4229 15.928 15.4255 15.928 15.4281 15.928C15.4308 15.928 15.4334 15.928 15.436 15.928C15.4386 15.928 15.4412 15.928 15.4439 15.928C15.4465 15.928 15.4491 15.928 15.4516 15.928C15.4542 15.928 15.4568 15.928 15.4594 15.928C15.462 15.928 15.4645 15.928 15.4671 15.928C15.4697 15.928 15.4722 15.928 15.4748 15.928C15.4773 15.928 15.4799 15.928 15.4824 15.928C15.4849 15.928 15.4875 15.928 15.49 15.928C15.4925 15.928 15.495 15.928 15.4975 15.928C15.5 15.928 15.5025 15.928 15.505 15.928C15.5075 15.928 15.51 15.928 15.5125 15.928C15.515 15.928 15.5174 15.928 15.5199 15.928C15.5224 15.928 15.5248 15.928 15.5273 15.928C15.5297 15.928 15.5322 15.928 15.5346 15.928C15.537 15.928 15.5395 15.928 15.5419 15.928C15.5443 15.928 15.5467 15.928 15.5492 15.928C15.5516 15.928 15.554 15.928 15.5564 15.928C15.5588 15.928 15.5611 15.928 15.5635 15.928C15.5659 15.928 15.5683 15.928 15.5707 15.928C15.573 15.928 15.5754 15.928 15.5777 15.928C15.5801 15.928 15.5824 15.928 15.5848 15.928C15.5871 15.928 15.5895 15.928 15.5918 15.928C15.5941 15.928 15.5964 15.928 15.5988 15.928C15.6011 15.928 15.6034 15.928 15.6057 15.928C15.608 15.928 15.6103 15.928 15.6126 15.928C15.6149 15.928 15.6171 15.928 15.6194 15.928C15.6217 15.928 15.624 15.928 15.6262 15.928C15.6285 15.928 15.6307 15.928 15.633 15.928C15.6352 15.928 15.6375 15.928 15.6397 15.928C15.6419 15.928 15.6442 15.928 15.6464 15.928C15.6486 15.928 15.6508 15.928 15.653 15.928C15.6552 15.928 15.6574 15.928 15.6596 15.928C15.6618 15.928 15.664 15.928 15.6662 15.928C15.6684 15.928 15.6706 15.928 15.6727 15.928C15.6749 15.928 15.6771 15.928 15.6792 15.928C15.6814 15.928 15.6835 15.928 15.6857 15.928C15.6878 15.928 15.69 15.928 15.6921 15.928C15.6942 15.928 15.6963 15.928 15.6985 15.928C15.7006 15.928 15.7027 15.928 15.7048 15.928C15.7069 15.928 15.709 15.928 15.7111 15.928C15.7132 15.928 15.7153 15.928 15.7173 15.928C15.7194 15.928 15.7215 15.928 15.7236 15.928C15.7256 15.928 15.7277 15.928 15.7297 15.928C15.7318 15.928 15.7338 15.928 15.7359 15.928C15.7379 15.928 15.74 15.928 15.742 15.928C15.744 15.928 15.746 15.928 15.7481 15.928C15.7501 15.928 15.7521 15.928 15.7541 15.928C15.7561 15.928 15.7581 15.928 15.7601 15.928C15.7621 15.928 15.7641 15.928 15.766 15.928C15.768 15.928 15.77 15.928 15.772 15.928C15.7739 15.928 15.7759 15.928 15.7778 15.928C15.7798 15.928 15.7817 15.928 15.7837 15.928C15.7856 15.928 15.7876 15.928 15.7895 15.928C15.7914 15.928 15.7933 15.928 15.7953 15.928C15.7972 15.928 15.7991 15.928 15.801 15.928C15.8029 15.928 15.8048 15.928 15.8067 15.928C15.8086 15.928 15.8105 15.928 15.8123 15.928C15.8142 15.928 15.8161 15.928 15.818 15.928C15.8198 15.928 15.8217 15.928 15.8236 15.928C15.8254 15.928 15.8273 15.928 15.8291 15.928C15.8309 15.928 15.8328 15.928 15.8346 15.928C15.8365 15.928 15.8383 15.928 15.8401 15.928C15.8419 15.928 15.8437 15.928 15.8455 15.928C15.8474 15.928 15.8492 15.928 15.851 15.928C15.8527 15.928 15.8545 15.928 15.8563 15.928C15.8581 15.928 15.8599 15.928 15.8617 15.928C15.8634 15.928 15.8652 15.928 15.867 15.928C15.8687 15.928 15.8705 15.928 15.8722 15.928C15.874 15.928 15.8757 15.928 15.8775 15.928C15.8792 15.928 15.8809 15.928 15.8827 15.928C15.8844 15.928 15.8861 15.928 15.8878 15.928C15.8895 15.928 15.8912 15.928 15.8929 15.928C15.8946 15.928 15.8963 15.928 15.898 15.928C15.8997 15.928 15.9014 15.928 15.9031 15.928C15.9048 15.928 15.9065 15.928 15.9081 15.928C15.9098 15.928 15.9115 15.928 15.9131 15.928C15.9148 15.928 15.9164 15.928 15.9181 15.928C15.9197 15.928 15.9214 15.928 15.923 15.928C15.9246 15.928 15.9263 15.928 15.9279 15.928C15.9295 15.928 15.9311 15.928 15.9327 15.928C15.9343 15.928 15.9359 15.928 15.9375 15.928C15.9391 15.928 15.9407 15.928 15.9423 15.928C15.9439 15.928 15.9455 15.928 15.9471 15.928C15.9487 15.928 15.9502 15.928 15.9518 15.928C15.9534 15.928 15.9549 15.928 15.9565 15.928C15.958 15.928 15.9596 15.928 15.9611 15.928C15.9627 15.928 15.9642 15.928 15.9658 15.928C15.9673 15.928 15.9688 15.928 15.9704 15.928C15.9719 15.928 15.9734 15.928 15.9749 15.928C15.9764 15.928 15.9779 15.928 15.9794 15.928C15.9809 15.928 15.9824 15.928 15.9839 15.928C15.9854 15.928 15.9869 15.928 15.9884 15.928C15.9899 15.928 15.9913 15.928 15.9928 15.928C15.9943 15.928 15.9957 15.928 15.9972 15.928C15.9987 15.928 16.0001 15.928 16.0016 15.928C16.003 15.928 16.0045 15.928 16.0059 15.928C16.0073 15.928 16.0088 15.928 16.0102 15.928C16.0116 15.928 16.013 15.928 16.0145 15.928C16.0159 15.928 16.0173 15.928 16.0187 15.928C16.0201 15.928 16.0215 15.928 16.0229 15.928C16.0243 15.928 16.0257 15.928 16.0271 15.928C16.0284 15.928 16.0298 15.928 16.0312 15.928C16.0326 15.928 16.0339 15.928 16.0353 15.928C16.0367 15.928 16.038 15.928 16.0394 15.928C16.0407 15.928 16.0421 15.928 16.0434 15.928C16.0448 15.928 16.0461 15.928 16.0475 15.928C16.0488 15.928 16.0501 15.928 16.0514 15.928C16.0528 15.928 16.0541 15.928 16.0554 15.928C16.0567 15.928 16.058 15.928 16.0593 15.928C16.0606 15.928 16.0619 15.928 16.0632 15.928C16.0645 15.928 16.0658 15.928 16.0671 15.928C16.0684 15.928 16.0696 15.928 16.0709 15.928C16.0722 15.928 16.0735 15.928 16.0747 15.928C16.076 15.928 16.0772 15.928 16.0785 15.928C16.0797 15.928 16.081 15.928 16.0822 15.928C16.0835 15.928 16.0847 15.928 16.086 15.928C16.0872 15.928 16.0884 15.928 16.0896 15.928C16.0909 15.928 16.0921 15.928 16.0933 15.928C16.0945 15.928 16.0957 15.928 16.0969 15.928C16.0981 15.928 16.0993 15.928 16.1005 15.928C16.1017 15.928 16.1029 15.928 16.1041 15.928C16.1053 15.928 16.1065 15.928 16.1076 15.928C16.1088 15.928 16.11 15.928 16.1111 15.928C16.1123 15.928 16.1135 15.928 16.1146 15.928C16.1158 15.928 16.1169 15.928 16.1181 15.928C16.1192 15.928 16.1204 15.928 16.1215 15.928C16.1226 15.928 16.1238 15.928 16.1249 15.928C16.126 15.928 16.1272 15.928 16.1283 15.928C16.1294 15.928 16.1305 15.928 16.1316 15.928C16.1327 15.928 16.1338 15.928 16.1349 15.928C16.136 15.928 16.1371 15.928 16.1382 15.928C16.1393 15.928 16.1404 15.928 16.1415 15.928C16.1426 15.928 16.1436 15.928 16.1447 15.928C16.1458 15.928 16.1469 15.928 16.1479 15.928C16.149 15.928 16.15 15.928 16.1511 15.928C16.1521 15.928 16.1532 15.928 16.1542 15.928C16.1553 15.928 16.1563 15.928 16.1574 15.928C16.1584 15.928 16.1594 15.928 16.1605 15.928C16.1615 15.928 16.1625 15.928 16.1635 15.928C16.1645 15.928 16.1656 15.928 16.1666 15.928C16.1676 15.928 16.1686 15.928 16.1696 15.928C16.1706 15.928 16.1716 15.928 16.1726 15.928C16.1736 15.928 16.1745 15.928 16.1755 15.928C16.1765 15.928 16.1775 15.928 16.1785 15.928C16.1794 15.928 16.1804 15.928 16.1814 15.928C16.1823 15.928 16.1833 15.928 16.1843 15.928C16.1852 15.928 16.1862 15.928 16.1871 15.928C16.1881 15.928 16.189 15.928 16.1899 15.928C16.1909 15.928 16.1918 15.928 16.1928 15.928C16.1937 15.928 16.1946 15.928 16.1955 15.928C16.1965 15.928 16.1974 15.928 16.1983 15.928C16.1992 15.928 16.2001 15.928 16.201 15.928C16.2019 15.928 16.2028 15.928 16.2037 15.928C16.2046 15.928 16.2055 15.928 16.2064 15.928C16.2073 15.928 16.2082 15.928 16.2091 15.928C16.2099 15.928 16.2108 15.928 16.2117 15.928C16.2126 15.928 16.2134 15.928 16.2143 15.928C16.2152 15.928 16.216 15.928 16.2169 15.928C16.2177 15.928 16.2186 15.928 16.2194 15.928C16.2203 15.928 16.2211 15.928 16.222 15.928C16.2228 15.928 16.2236 15.928 16.2245 15.928C16.2253 15.928 16.2261 15.928 16.2269 15.928C16.2278 15.928 16.2286 15.928 16.2294 15.928C16.2302 15.928 16.231 15.928 16.2318 15.928C16.2326 15.928 16.2334 15.928 16.2342 15.928C16.235 15.928 16.2358 15.928 16.2366 15.928C16.2374 15.928 16.2382 15.928 16.239 15.928C16.2398 15.928 16.2406 15.928 16.2413 15.928C16.2421 15.928 16.2429 15.928 16.2437 15.928C16.2444 15.928 16.2452 15.928 16.2459 15.928C16.2467 15.928 16.2475 15.928 16.2482 15.928C16.249 15.928 16.2497 15.928 16.2505 15.928C16.2512 15.928 16.2519 15.928 16.2527 15.928C16.2534 15.928 16.2542 15.928 16.2549 15.928C16.2556 15.928 16.2563 15.928 16.2571 15.928C16.2578 15.928 16.2585 15.928 16.2592 15.928C16.2599 15.928 16.2606 15.928 16.2614 15.928C16.2621 15.928 16.2628 15.928 16.2635 15.928C16.2642 15.928 16.2649 15.928 16.2656 15.928C16.2662 15.928 16.2669 15.928 16.2676 15.928C16.2683 15.928 16.269 15.928 16.2697 15.928C16.2703 15.928 16.271 15.928 16.2717 15.928C16.2724 15.928 16.273 15.928 16.2737 15.928C16.2744 15.928 16.275 15.928 16.2757 15.928C16.2763 15.928 16.277 15.928 16.2776 15.928C16.2783 15.928 16.2789 15.928 16.2796 15.928C16.2802 15.928 16.2808 15.928 16.2815 15.928C16.2821 15.928 16.2827 15.928 16.2834 15.928C16.284 15.928 16.2846 15.928 16.2852 15.928C16.2859 15.928 16.2865 15.928 16.2871 15.928C16.2877 15.928 16.2883 15.928 16.2889 15.928C16.2895 15.928 16.2901 15.928 16.2907 15.928C16.2913 15.928 16.2919 15.928 16.2925 15.928C16.2931 15.928 16.2937 15.928 16.2943 15.928C16.2949 15.928 16.2955 15.928 16.2961 15.928C16.2966 15.928 16.2972 15.928 16.2978 15.928C16.2984 15.928 16.2989 15.928 16.2995 15.928C16.3001 15.928 16.3006 15.928 16.3012 15.928C16.3017 15.928 16.3023 15.928 16.3028 15.928C16.3034 15.928 16.304 15.928 16.3045 15.928C16.305 15.928 16.3056 15.928 16.3061 15.928C16.3067 15.928 16.3072 15.928 16.3077 15.928C16.3083 15.928 16.3088 15.928 16.3093 15.928C16.3099 15.928 16.3104 15.928 16.3109 15.928C16.3114 15.928 16.3119 15.928 16.3125 15.928C16.313 15.928 16.3135 15.928 16.314 15.928C16.3145 15.928 16.315 15.928 16.3155 15.928C16.316 15.928 16.3165 15.928 16.317 15.928C16.3175 15.928 16.318 15.928 16.3185 15.928C16.319 15.928 16.3194 15.928 16.3199 15.928C16.3204 15.928 16.3209 15.928 16.3214 15.928C16.3218 15.928 16.3223 15.928 16.3228 15.928C16.3233 15.928 16.3237 15.928 16.3242 15.928C16.3247 15.928 16.3251 15.928 16.3256 15.928C16.326 15.928 16.3265 15.928 16.327 15.928C16.3274 15.928 16.3279 15.928 16.3283 15.928C16.3287 15.928 16.3292 15.928 16.3296 15.928C16.3301 15.928 16.3305 15.928 16.3309 15.928C16.3314 15.928 16.3318 15.928 16.3322 15.928C16.3327 15.928 16.3331 15.928 16.3335 15.928C16.3339 15.928 16.3344 15.928 16.3348 15.928C16.3352 15.928 16.3356 15.928 16.336 15.928C16.3364 15.928 16.3368 15.928 16.3373 15.928C16.3377 15.928 16.3381 15.928 16.3385 15.928C16.3389 15.928 16.3393 15.928 16.3397 15.928C16.3401 15.928 16.3404 15.928 16.3408 15.928C16.3412 15.928 16.3416 15.928 16.342 15.928C16.3424 15.928 16.3428 15.928 16.3431 15.928C16.3435 15.928 16.3439 15.928 16.3443 15.928C16.3446 15.928 16.345 15.928 16.3454 15.928C16.3457 15.928 16.3461 15.928 16.3465 15.928C16.3468 15.928 16.3472 15.928 16.3476 15.928C16.3479 15.928 16.3483 15.928 16.3486 15.928C16.349 15.928 16.3493 15.928 16.3497 15.928C16.35 15.928 16.3504 15.928 16.3507 15.928C16.351 15.928 16.3514 15.928 16.3517 15.928C16.3521 15.928 16.3524 15.928 16.3527 15.928C16.353 15.928 16.3534 15.928 16.3537 15.928C16.354 15.928 16.3544 15.928 16.3547 15.928C16.355 15.928 16.3553 15.928 16.3556 15.928C16.3559 15.928 16.3563 15.928 16.3566 15.928C16.3569 15.928 16.3572 15.928 16.3575 15.928C16.3578 15.928 16.3581 15.928 16.3584 15.928C16.3587 15.928 16.359 15.928 16.3593 15.928C16.3596 15.928 16.3599 15.928 16.3602 15.928C16.3605 15.928 16.3608 15.928 16.361 15.928C16.3613 15.928 16.3616 15.928 16.3619 15.928C16.3622 15.928 16.3625 15.928 16.3627 15.928C16.363 15.928 16.3633 15.928 16.3636 15.928C16.3638 15.928 16.3641 15.928 16.3644 15.928C16.3646 15.928 16.3649 15.928 16.3652 15.928C16.3654 15.928 16.3657 15.928 16.366 15.928C16.3662 15.928 16.3665 15.928 16.3667 15.928C16.367 15.928 16.3672 15.928 16.3675 15.928C16.3677 15.928 16.368 15.928 16.3682 15.928C16.3685 15.928 16.3687 15.928 16.369 15.928C16.3692 15.928 16.3694 15.928 16.3697 15.928C16.3699 15.928 16.3701 15.928 16.3704 15.928C16.3706 15.928 16.3708 15.928 16.3711 15.928C16.3713 15.928 16.3715 15.928 16.3717 15.928C16.372 15.928 16.3722 15.928 16.3724 15.928C16.3726 15.928 16.3729 15.928 16.3731 15.928C16.3733 15.928 16.3735 15.928 16.3737 15.928C16.3739 15.928 16.3741 15.928 16.3743 15.928C16.3745 15.928 16.3748 15.928 16.375 15.928C16.3752 15.928 16.3754 15.928 16.3756 15.928C16.3758 15.928 16.376 15.928 16.3762 15.928C16.3763 15.928 16.3765 15.928 16.3767 15.928C16.3769 15.928 16.3771 15.928 16.3773 15.928C16.3775 15.928 16.3777 15.928 16.3779 15.928C16.378 15.928 16.3782 15.928 16.3784 15.928C16.3786 15.928 16.3788 15.928 16.3789 15.928C16.3791 15.928 16.3793 15.928 16.3795 15.928C16.3796 15.928 16.3798 15.928 16.38 15.928C16.3801 15.928 16.3803 15.928 16.3805 15.928C16.3806 15.928 16.3808 15.928 16.381 15.928C16.3811 15.928 16.3813 15.928 16.3814 15.928C16.3816 15.928 16.3818 15.928 16.3819 15.928C16.3821 15.928 16.3822 15.928 16.3824 15.928C16.3825 15.928 16.3827 15.928 16.3828 15.928C16.383 15.928 16.3831 15.928 16.3833 15.928C16.3834 15.928 16.3835 15.928 16.3837 15.928C16.3838 15.928 16.384 15.928 16.3841 15.928C16.3842 15.928 16.3844 15.928 16.3845 15.928C16.3846 15.928 16.3848 15.928 16.3849 15.928C16.385 15.928 16.3852 15.928 16.3853 15.928C16.3854 15.928 16.3856 15.928 16.3857 15.928C16.3858 15.928 16.3859 15.928 16.386 15.928C16.3862 15.928 16.3863 15.928 16.3864 15.928C16.3865 15.928 16.3866 15.928 16.3868 15.928C16.3869 15.928 16.387 15.928 16.3871 15.928C16.3872 15.928 16.3873 15.928 16.3874 15.928C16.3875 15.928 16.3876 15.928 16.3878 15.928C16.3879 15.928 16.388 15.928 16.3881 15.928C16.3882 15.928 16.3883 15.928 16.3884 15.928C16.3885 15.928 16.3886 15.928 16.3887 15.928C16.3888 15.928 16.3889 15.928 16.389 15.928C16.3891 15.928 16.3891 15.928 16.3892 15.928C16.3893 15.928 16.3894 15.928 16.3895 15.928C16.3896 15.928 16.3897 15.928 16.3898 15.928C16.3899 15.928 16.39 15.928 16.39 15.928C16.3901 15.928 16.3902 15.928 16.3903 15.928C16.3904 15.928 16.3904 15.928 16.3905 15.928C16.3906 15.928 16.3907 15.928 16.3908 15.928C16.3908 15.928 16.3909 15.928 16.391 15.928C16.3911 15.928 16.3911 15.928 16.3912 15.928C16.3913 15.928 16.3913 15.928 16.3914 15.928C16.3915 15.928 16.3916 15.928 16.3916 15.928C16.3917 15.928 16.3918 15.928 16.3918 15.928C16.3919 15.928 16.3919 15.928 16.392 15.928C16.3921 15.928 16.3921 15.928 16.3922 15.928C16.3923 15.928 16.3923 15.928 16.3924 15.928C16.3924 15.928 16.3925 15.928 16.3925 15.928C16.3926 15.928 16.3926 15.928 16.3927 15.928C16.3928 15.928 16.3928 15.928 16.3929 15.928C16.3929 15.928 16.393 15.928 16.393 15.928C16.3931 15.928 16.3931 15.928 16.3932 15.928C16.3932 15.928 16.3932 15.928 16.3933 15.928C16.3933 15.928 16.3934 15.928 16.3934 15.928C16.3935 15.928 16.3935 15.928 16.3936 15.928C16.3936 15.928 16.3936 15.928 16.3937 15.928C16.3937 15.928 16.3938 15.928 16.3938 15.928C16.3938 15.928 16.3939 15.928 16.3939 15.928C16.3939 15.928 16.394 15.928 16.394 15.928C16.394 15.928 16.3941 15.928 16.3941 15.928C16.3941 15.928 16.3942 15.928 16.3942 15.928C16.3942 15.928 16.3943 15.928 16.3943 15.928C16.3943 15.928 16.3944 15.928 16.3944 15.928C16.3944 15.928 16.3944 15.928 16.3945 15.928C16.3945 15.928 16.3945 15.928 16.3945 15.928C16.3946 15.928 16.3946 15.928 16.3946 15.928C16.3946 15.928 16.3947 15.928 16.3947 15.928C16.3947 15.928 16.3947 15.928 16.3947 15.928C16.3948 15.928 16.3948 15.928 16.3948 15.928C16.3948 15.928 16.3948 15.928 16.3949 15.928C16.3949 15.928 16.3949 15.928 16.3949 15.928C16.3949 15.928 16.3949 15.928 16.395 15.928C16.395 15.928 16.395 15.928 16.395 15.928C16.395 15.928 16.395 15.928 16.3951 15.928C16.3951 15.928 16.3951 15.928 16.3951 15.928C16.3951 15.928 16.3951 15.928 16.3951 15.928C16.3951 15.928 16.3951 15.928 16.3952 15.928C16.3952 15.928 16.3952 15.928 16.3952 15.928C16.3952 15.928 16.3952 15.928 16.3952 15.928C16.3952 15.928 16.3952 15.928 16.3952 15.928C16.3952 15.928 16.3952 15.928 16.3952 15.928C16.3953 15.928 16.3953 15.928 16.3953 15.928C16.3953 15.928 16.3953 15.928 16.3953 15.928C16.3953 15.928 16.3953 15.928 16.3953 15.928C16.3953 15.928 16.3953 15.928 16.3953 15.928C16.3953 15.928 16.3953 15.928 16.3953 15.928C16.3953 15.928 16.3953 15.928 16.3953 15.928C16.3953 15.928 16.3953 15.928 16.3953 15.928C16.3953 15.928 16.3953 15.928 16.3953 15.928C16.3953 15.928 16.3953 15.928 16.3953 15.428C16.3953 14.928 16.3953 14.928 16.3953 14.928C16.3953 14.928 16.3953 14.928 16.3953 14.928C16.3953 14.928 16.3953 14.928 16.3953 14.928C16.3953 14.928 16.3953 14.928 16.3953 14.928C16.3953 14.928 16.3953 14.928 16.3953 14.928C16.3953 14.928 16.3953 14.928 16.3953 14.928C16.3953 14.928 16.3953 14.928 16.3953 14.928C16.3953 14.928 16.3953 14.928 16.3953 14.928C16.3953 14.928 16.3953 14.928 16.3952 14.928C16.3952 14.928 16.3952 14.928 16.3952 14.928C16.3952 14.928 16.3952 14.928 16.3952 14.928C16.3952 14.928 16.3952 14.928 16.3952 14.928C16.3952 14.928 16.3952 14.928 16.3952 14.928C16.3951 14.928 16.3951 14.928 16.3951 14.928C16.3951 14.928 16.3951 14.928 16.3951 14.928C16.3951 14.928 16.3951 14.928 16.3951 14.928C16.395 14.928 16.395 14.928 16.395 14.928C16.395 14.928 16.395 14.928 16.395 14.928C16.3949 14.928 16.3949 14.928 16.3949 14.928C16.3949 14.928 16.3949 14.928 16.3949 14.928C16.3948 14.928 16.3948 14.928 16.3948 14.928C16.3948 14.928 16.3948 14.928 16.3947 14.928C16.3947 14.928 16.3947 14.928 16.3947 14.928C16.3947 14.928 16.3946 14.928 16.3946 14.928C16.3946 14.928 16.3946 14.928 16.3945 14.928C16.3945 14.928 16.3945 14.928 16.3945 14.928C16.3944 14.928 16.3944 14.928 16.3944 14.928C16.3944 14.928 16.3943 14.928 16.3943 14.928C16.3943 14.928 16.3942 14.928 16.3942 14.928C16.3942 14.928 16.3941 14.928 16.3941 14.928C16.3941 14.928 16.394 14.928 16.394 14.928C16.394 14.928 16.3939 14.928 16.3939 14.928C16.3939 14.928 16.3938 14.928 16.3938 14.928C16.3938 14.928 16.3937 14.928 16.3937 14.928C16.3936 14.928 16.3936 14.928 16.3936 14.928C16.3935 14.928 16.3935 14.928 16.3934 14.928C16.3934 14.928 16.3933 14.928 16.3933 14.928C16.3932 14.928 16.3932 14.928 16.3932 14.928C16.3931 14.928 16.3931 14.928 16.393 14.928C16.393 14.928 16.3929 14.928 16.3929 14.928C16.3928 14.928 16.3928 14.928 16.3927 14.928C16.3926 14.928 16.3926 14.928 16.3925 14.928C16.3925 14.928 16.3924 14.928 16.3924 14.928C16.3923 14.928 16.3923 14.928 16.3922 14.928C16.3921 14.928 16.3921 14.928 16.392 14.928C16.3919 14.928 16.3919 14.928 16.3918 14.928C16.3918 14.928 16.3917 14.928 16.3916 14.928C16.3916 14.928 16.3915 14.928 16.3914 14.928C16.3913 14.928 16.3913 14.928 16.3912 14.928C16.3911 14.928 16.3911 14.928 16.391 14.928C16.3909 14.928 16.3908 14.928 16.3908 14.928C16.3907 14.928 16.3906 14.928 16.3905 14.928C16.3904 14.928 16.3904 14.928 16.3903 14.928C16.3902 14.928 16.3901 14.928 16.39 14.928C16.39 14.928 16.3899 14.928 16.3898 14.928C16.3897 14.928 16.3896 14.928 16.3895 14.928C16.3894 14.928 16.3893 14.928 16.3892 14.928C16.3891 14.928 16.3891 14.928 16.389 14.928C16.3889 14.928 16.3888 14.928 16.3887 14.928C16.3886 14.928 16.3885 14.928 16.3884 14.928C16.3883 14.928 16.3882 14.928 16.3881 14.928C16.388 14.928 16.3879 14.928 16.3878 14.928C16.3876 14.928 16.3875 14.928 16.3874 14.928C16.3873 14.928 16.3872 14.928 16.3871 14.928C16.387 14.928 16.3869 14.928 16.3868 14.928C16.3866 14.928 16.3865 14.928 16.3864 14.928C16.3863 14.928 16.3862 14.928 16.386 14.928C16.3859 14.928 16.3858 14.928 16.3857 14.928C16.3856 14.928 16.3854 14.928 16.3853 14.928C16.3852 14.928 16.385 14.928 16.3849 14.928C16.3848 14.928 16.3846 14.928 16.3845 14.928C16.3844 14.928 16.3842 14.928 16.3841 14.928C16.384 14.928 16.3838 14.928 16.3837 14.928C16.3835 14.928 16.3834 14.928 16.3833 14.928C16.3831 14.928 16.383 14.928 16.3828 14.928C16.3827 14.928 16.3825 14.928 16.3824 14.928C16.3822 14.928 16.3821 14.928 16.3819 14.928C16.3818 14.928 16.3816 14.928 16.3814 14.928C16.3813 14.928 16.3811 14.928 16.381 14.928C16.3808 14.928 16.3806 14.928 16.3805 14.928C16.3803 14.928 16.3801 14.928 16.38 14.928C16.3798 14.928 16.3796 14.928 16.3795 14.928C16.3793 14.928 16.3791 14.928 16.3789 14.928C16.3788 14.928 16.3786 14.928 16.3784 14.928C16.3782 14.928 16.378 14.928 16.3779 14.928C16.3777 14.928 16.3775 14.928 16.3773 14.928C16.3771 14.928 16.3769 14.928 16.3767 14.928C16.3765 14.928 16.3763 14.928 16.3762 14.928C16.376 14.928 16.3758 14.928 16.3756 14.928C16.3754 14.928 16.3752 14.928 16.375 14.928C16.3748 14.928 16.3745 14.928 16.3743 14.928C16.3741 14.928 16.3739 14.928 16.3737 14.928C16.3735 14.928 16.3733 14.928 16.3731 14.928C16.3729 14.928 16.3726 14.928 16.3724 14.928C16.3722 14.928 16.372 14.928 16.3717 14.928C16.3715 14.928 16.3713 14.928 16.3711 14.928C16.3708 14.928 16.3706 14.928 16.3704 14.928C16.3701 14.928 16.3699 14.928 16.3697 14.928C16.3694 14.928 16.3692 14.928 16.369 14.928C16.3687 14.928 16.3685 14.928 16.3682 14.928C16.368 14.928 16.3677 14.928 16.3675 14.928C16.3672 14.928 16.367 14.928 16.3667 14.928C16.3665 14.928 16.3662 14.928 16.366 14.928C16.3657 14.928 16.3654 14.928 16.3652 14.928C16.3649 14.928 16.3646 14.928 16.3644 14.928C16.3641 14.928 16.3638 14.928 16.3636 14.928C16.3633 14.928 16.363 14.928 16.3627 14.928C16.3625 14.928 16.3622 14.928 16.3619 14.928C16.3616 14.928 16.3613 14.928 16.361 14.928C16.3608 14.928 16.3605 14.928 16.3602 14.928C16.3599 14.928 16.3596 14.928 16.3593 14.928C16.359 14.928 16.3587 14.928 16.3584 14.928C16.3581 14.928 16.3578 14.928 16.3575 14.928C16.3572 14.928 16.3569 14.928 16.3566 14.928C16.3563 14.928 16.3559 14.928 16.3556 14.928C16.3553 14.928 16.355 14.928 16.3547 14.928C16.3544 14.928 16.354 14.928 16.3537 14.928C16.3534 14.928 16.353 14.928 16.3527 14.928C16.3524 14.928 16.3521 14.928 16.3517 14.928C16.3514 14.928 16.351 14.928 16.3507 14.928C16.3504 14.928 16.35 14.928 16.3497 14.928C16.3493 14.928 16.349 14.928 16.3486 14.928C16.3483 14.928 16.3479 14.928 16.3476 14.928C16.3472 14.928 16.3468 14.928 16.3465 14.928C16.3461 14.928 16.3457 14.928 16.3454 14.928C16.345 14.928 16.3446 14.928 16.3443 14.928C16.3439 14.928 16.3435 14.928 16.3431 14.928C16.3428 14.928 16.3424 14.928 16.342 14.928C16.3416 14.928 16.3412 14.928 16.3408 14.928C16.3404 14.928 16.3401 14.928 16.3397 14.928C16.3393 14.928 16.3389 14.928 16.3385 14.928C16.3381 14.928 16.3377 14.928 16.3373 14.928C16.3368 14.928 16.3364 14.928 16.336 14.928C16.3356 14.928 16.3352 14.928 16.3348 14.928C16.3344 14.928 16.3339 14.928 16.3335 14.928C16.3331 14.928 16.3327 14.928 16.3322 14.928C16.3318 14.928 16.3314 14.928 16.3309 14.928C16.3305 14.928 16.3301 14.928 16.3296 14.928C16.3292 14.928 16.3287 14.928 16.3283 14.928C16.3279 14.928 16.3274 14.928 16.327 14.928C16.3265 14.928 16.326 14.928 16.3256 14.928C16.3251 14.928 16.3247 14.928 16.3242 14.928C16.3237 14.928 16.3233 14.928 16.3228 14.928C16.3223 14.928 16.3218 14.928 16.3214 14.928C16.3209 14.928 16.3204 14.928 16.3199 14.928C16.3194 14.928 16.319 14.928 16.3185 14.928C16.318 14.928 16.3175 14.928 16.317 14.928C16.3165 14.928 16.316 14.928 16.3155 14.928C16.315 14.928 16.3145 14.928 16.314 14.928C16.3135 14.928 16.313 14.928 16.3125 14.928C16.3119 14.928 16.3114 14.928 16.3109 14.928C16.3104 14.928 16.3099 14.928 16.3093 14.928C16.3088 14.928 16.3083 14.928 16.3077 14.928C16.3072 14.928 16.3067 14.928 16.3061 14.928C16.3056 14.928 16.305 14.928 16.3045 14.928C16.304 14.928 16.3034 14.928 16.3028 14.928C16.3023 14.928 16.3017 14.928 16.3012 14.928C16.3006 14.928 16.3001 14.928 16.2995 14.928C16.2989 14.928 16.2984 14.928 16.2978 14.928C16.2972 14.928 16.2966 14.928 16.2961 14.928C16.2955 14.928 16.2949 14.928 16.2943 14.928C16.2937 14.928 16.2931 14.928 16.2925 14.928C16.2919 14.928 16.2913 14.928 16.2907 14.928C16.2901 14.928 16.2895 14.928 16.2889 14.928C16.2883 14.928 16.2877 14.928 16.2871 14.928C16.2865 14.928 16.2859 14.928 16.2852 14.928C16.2846 14.928 16.284 14.928 16.2834 14.928C16.2827 14.928 16.2821 14.928 16.2815 14.928C16.2808 14.928 16.2802 14.928 16.2796 14.928C16.2789 14.928 16.2783 14.928 16.2776 14.928C16.277 14.928 16.2763 14.928 16.2757 14.928C16.275 14.928 16.2744 14.928 16.2737 14.928C16.273 14.928 16.2724 14.928 16.2717 14.928C16.271 14.928 16.2703 14.928 16.2697 14.928C16.269 14.928 16.2683 14.928 16.2676 14.928C16.2669 14.928 16.2662 14.928 16.2656 14.928C16.2649 14.928 16.2642 14.928 16.2635 14.928C16.2628 14.928 16.2621 14.928 16.2614 14.928C16.2606 14.928 16.2599 14.928 16.2592 14.928C16.2585 14.928 16.2578 14.928 16.2571 14.928C16.2563 14.928 16.2556 14.928 16.2549 14.928C16.2542 14.928 16.2534 14.928 16.2527 14.928C16.2519 14.928 16.2512 14.928 16.2505 14.928C16.2497 14.928 16.249 14.928 16.2482 14.928C16.2475 14.928 16.2467 14.928 16.2459 14.928C16.2452 14.928 16.2444 14.928 16.2437 14.928C16.2429 14.928 16.2421 14.928 16.2413 14.928C16.2406 14.928 16.2398 14.928 16.239 14.928C16.2382 14.928 16.2374 14.928 16.2366 14.928C16.2358 14.928 16.235 14.928 16.2342 14.928C16.2334 14.928 16.2326 14.928 16.2318 14.928C16.231 14.928 16.2302 14.928 16.2294 14.928C16.2286 14.928 16.2278 14.928 16.2269 14.928C16.2261 14.928 16.2253 14.928 16.2245 14.928C16.2236 14.928 16.2228 14.928 16.222 14.928C16.2211 14.928 16.2203 14.928 16.2194 14.928C16.2186 14.928 16.2177 14.928 16.2169 14.928C16.216 14.928 16.2152 14.928 16.2143 14.928C16.2134 14.928 16.2126 14.928 16.2117 14.928C16.2108 14.928 16.2099 14.928 16.2091 14.928C16.2082 14.928 16.2073 14.928 16.2064 14.928C16.2055 14.928 16.2046 14.928 16.2037 14.928C16.2028 14.928 16.2019 14.928 16.201 14.928C16.2001 14.928 16.1992 14.928 16.1983 14.928C16.1974 14.928 16.1965 14.928 16.1955 14.928C16.1946 14.928 16.1937 14.928 16.1928 14.928C16.1918 14.928 16.1909 14.928 16.1899 14.928C16.189 14.928 16.1881 14.928 16.1871 14.928C16.1862 14.928 16.1852 14.928 16.1843 14.928C16.1833 14.928 16.1823 14.928 16.1814 14.928C16.1804 14.928 16.1794 14.928 16.1785 14.928C16.1775 14.928 16.1765 14.928 16.1755 14.928C16.1745 14.928 16.1736 14.928 16.1726 14.928C16.1716 14.928 16.1706 14.928 16.1696 14.928C16.1686 14.928 16.1676 14.928 16.1666 14.928C16.1656 14.928 16.1645 14.928 16.1635 14.928C16.1625 14.928 16.1615 14.928 16.1605 14.928C16.1594 14.928 16.1584 14.928 16.1574 14.928C16.1563 14.928 16.1553 14.928 16.1542 14.928C16.1532 14.928 16.1521 14.928 16.1511 14.928C16.15 14.928 16.149 14.928 16.1479 14.928C16.1469 14.928 16.1458 14.928 16.1447 14.928C16.1436 14.928 16.1426 14.928 16.1415 14.928C16.1404 14.928 16.1393 14.928 16.1382 14.928C16.1371 14.928 16.136 14.928 16.1349 14.928C16.1338 14.928 16.1327 14.928 16.1316 14.928C16.1305 14.928 16.1294 14.928 16.1283 14.928C16.1272 14.928 16.126 14.928 16.1249 14.928C16.1238 14.928 16.1226 14.928 16.1215 14.928C16.1204 14.928 16.1192 14.928 16.1181 14.928C16.1169 14.928 16.1158 14.928 16.1146 14.928C16.1135 14.928 16.1123 14.928 16.1111 14.928C16.11 14.928 16.1088 14.928 16.1076 14.928C16.1065 14.928 16.1053 14.928 16.1041 14.928C16.1029 14.928 16.1017 14.928 16.1005 14.928C16.0993 14.928 16.0981 14.928 16.0969 14.928C16.0957 14.928 16.0945 14.928 16.0933 14.928C16.0921 14.928 16.0909 14.928 16.0896 14.928C16.0884 14.928 16.0872 14.928 16.086 14.928C16.0847 14.928 16.0835 14.928 16.0822 14.928C16.081 14.928 16.0797 14.928 16.0785 14.928C16.0772 14.928 16.076 14.928 16.0747 14.928C16.0735 14.928 16.0722 14.928 16.0709 14.928C16.0696 14.928 16.0684 14.928 16.0671 14.928C16.0658 14.928 16.0645 14.928 16.0632 14.928C16.0619 14.928 16.0606 14.928 16.0593 14.928C16.058 14.928 16.0567 14.928 16.0554 14.928C16.0541 14.928 16.0528 14.928 16.0514 14.928C16.0501 14.928 16.0488 14.928 16.0475 14.928C16.0461 14.928 16.0448 14.928 16.0434 14.928C16.0421 14.928 16.0407 14.928 16.0394 14.928C16.038 14.928 16.0367 14.928 16.0353 14.928C16.0339 14.928 16.0326 14.928 16.0312 14.928C16.0298 14.928 16.0284 14.928 16.0271 14.928C16.0257 14.928 16.0243 14.928 16.0229 14.928C16.0215 14.928 16.0201 14.928 16.0187 14.928C16.0173 14.928 16.0159 14.928 16.0145 14.928C16.013 14.928 16.0116 14.928 16.0102 14.928C16.0088 14.928 16.0073 14.928 16.0059 14.928C16.0045 14.928 16.003 14.928 16.0016 14.928C16.0001 14.928 15.9987 14.928 15.9972 14.928C15.9957 14.928 15.9943 14.928 15.9928 14.928C15.9913 14.928 15.9899 14.928 15.9884 14.928C15.9869 14.928 15.9854 14.928 15.9839 14.928C15.9824 14.928 15.9809 14.928 15.9794 14.928C15.9779 14.928 15.9764 14.928 15.9749 14.928C15.9734 14.928 15.9719 14.928 15.9704 14.928C15.9688 14.928 15.9673 14.928 15.9658 14.928C15.9642 14.928 15.9627 14.928 15.9611 14.928C15.9596 14.928 15.958 14.928 15.9565 14.928C15.9549 14.928 15.9534 14.928 15.9518 14.928C15.9502 14.928 15.9487 14.928 15.9471 14.928C15.9455 14.928 15.9439 14.928 15.9423 14.928C15.9407 14.928 15.9391 14.928 15.9375 14.928C15.9359 14.928 15.9343 14.928 15.9327 14.928C15.9311 14.928 15.9295 14.928 15.9279 14.928C15.9263 14.928 15.9246 14.928 15.923 14.928C15.9214 14.928 15.9197 14.928 15.9181 14.928C15.9164 14.928 15.9148 14.928 15.9131 14.928C15.9115 14.928 15.9098 14.928 15.9081 14.928C15.9065 14.928 15.9048 14.928 15.9031 14.928C15.9014 14.928 15.8997 14.928 15.898 14.928C15.8963 14.928 15.8946 14.928 15.8929 14.928C15.8912 14.928 15.8895 14.928 15.8878 14.928C15.8861 14.928 15.8844 14.928 15.8827 14.928C15.8809 14.928 15.8792 14.928 15.8775 14.928C15.8757 14.928 15.874 14.928 15.8722 14.928C15.8705 14.928 15.8687 14.928 15.867 14.928C15.8652 14.928 15.8634 14.928 15.8617 14.928C15.8599 14.928 15.8581 14.928 15.8563 14.928C15.8545 14.928 15.8527 14.928 15.851 14.928C15.8492 14.928 15.8474 14.928 15.8455 14.928C15.8437 14.928 15.8419 14.928 15.8401 14.928C15.8383 14.928 15.8365 14.928 15.8346 14.928C15.8328 14.928 15.8309 14.928 15.8291 14.928C15.8273 14.928 15.8254 14.928 15.8236 14.928C15.8217 14.928 15.8198 14.928 15.818 14.928C15.8161 14.928 15.8142 14.928 15.8123 14.928C15.8105 14.928 15.8086 14.928 15.8067 14.928C15.8048 14.928 15.8029 14.928 15.801 14.928C15.7991 14.928 15.7972 14.928 15.7953 14.928C15.7933 14.928 15.7914 14.928 15.7895 14.928C15.7876 14.928 15.7856 14.928 15.7837 14.928C15.7817 14.928 15.7798 14.928 15.7778 14.928C15.7759 14.928 15.7739 14.928 15.772 14.928C15.77 14.928 15.768 14.928 15.766 14.928C15.7641 14.928 15.7621 14.928 15.7601 14.928C15.7581 14.928 15.7561 14.928 15.7541 14.928C15.7521 14.928 15.7501 14.928 15.7481 14.928C15.746 14.928 15.744 14.928 15.742 14.928C15.74 14.928 15.7379 14.928 15.7359 14.928C15.7338 14.928 15.7318 14.928 15.7297 14.928C15.7277 14.928 15.7256 14.928 15.7236 14.928C15.7215 14.928 15.7194 14.928 15.7173 14.928C15.7153 14.928 15.7132 14.928 15.7111 14.928C15.709 14.928 15.7069 14.928 15.7048 14.928C15.7027 14.928 15.7006 14.928 15.6985 14.928C15.6963 14.928 15.6942 14.928 15.6921 14.928C15.69 14.928 15.6878 14.928 15.6857 14.928C15.6835 14.928 15.6814 14.928 15.6792 14.928C15.6771 14.928 15.6749 14.928 15.6727 14.928C15.6706 14.928 15.6684 14.928 15.6662 14.928C15.664 14.928 15.6618 14.928 15.6596 14.928C15.6574 14.928 15.6552 14.928 15.653 14.928C15.6508 14.928 15.6486 14.928 15.6464 14.928C15.6442 14.928 15.6419 14.928 15.6397 14.928C15.6375 14.928 15.6352 14.928 15.633 14.928C15.6307 14.928 15.6285 14.928 15.6262 14.928C15.624 14.928 15.6217 14.928 15.6194 14.928C15.6171 14.928 15.6149 14.928 15.6126 14.928C15.6103 14.928 15.608 14.928 15.6057 14.928C15.6034 14.928 15.6011 14.928 15.5988 14.928C15.5964 14.928 15.5941 14.928 15.5918 14.928C15.5895 14.928 15.5871 14.928 15.5848 14.928C15.5824 14.928 15.5801 14.928 15.5777 14.928C15.5754 14.928 15.573 14.928 15.5707 14.928C15.5683 14.928 15.5659 14.928 15.5635 14.928C15.5611 14.928 15.5588 14.928 15.5564 14.928C15.554 14.928 15.5516 14.928 15.5492 14.928C15.5467 14.928 15.5443 14.928 15.5419 14.928C15.5395 14.928 15.537 14.928 15.5346 14.928C15.5322 14.928 15.5297 14.928 15.5273 14.928C15.5248 14.928 15.5224 14.928 15.5199 14.928C15.5174 14.928 15.515 14.928 15.5125 14.928C15.51 14.928 15.5075 14.928 15.505 14.928C15.5025 14.928 15.5 14.928 15.4975 14.928C15.495 14.928 15.4925 14.928 15.49 14.928C15.4875 14.928 15.4849 14.928 15.4824 14.928C15.4799 14.928 15.4773 14.928 15.4748 14.928C15.4722 14.928 15.4697 14.928 15.4671 14.928C15.4645 14.928 15.462 14.928 15.4594 14.928C15.4568 14.928 15.4542 14.928 15.4516 14.928C15.4491 14.928 15.4465 14.928 15.4439 14.928C15.4412 14.928 15.4386 14.928 15.436 14.928C15.4334 14.928 15.4308 14.928 15.4281 14.928C15.4255 14.928 15.4229 14.928 15.4202 14.928C15.4176 14.928 15.4149 14.928 15.4122 14.928C15.4096 14.928 15.4069 14.928 15.4042 14.928C15.4016 14.928 15.3989 14.928 15.3962 14.928C15.3935 14.928 15.3908 14.928 15.3881 14.928C15.3854 14.928 15.3827 14.928 15.3799 14.928C15.3772 14.928 15.3745 14.928 15.3718 14.928C15.369 14.928 15.3663 14.928 15.3635 14.928C15.3608 14.928 15.358 14.928 15.3553 14.928C15.3525 14.928 15.3497 14.928 15.3469 14.928C15.3442 14.928 15.3414 14.928 15.3386 14.928C15.3358 14.928 15.333 14.928 15.3302 14.928C15.3274 14.928 15.3245 14.928 15.3217 14.928C15.3189 14.928 15.3161 14.928 15.3132 14.928C15.3104 14.928 15.3075 14.928 15.3047 14.928C15.3018 14.928 15.299 14.928 15.2961 14.928C15.2932 14.928 15.2904 14.928 15.2875 14.928C15.2846 14.928 15.2817 14.928 15.2788 14.928C15.2759 14.928 15.273 14.928 15.2701 14.928C15.2672 14.928 15.2643 14.928 15.2613 14.928C15.2584 14.928 15.2555 14.928 15.2525 14.928C15.2496 14.928 15.2466 14.928 15.2437 14.928C15.2407 14.928 15.2377 14.928 15.2348 14.928C15.2318 14.928 15.2288 14.928 15.2258 14.928C15.2228 14.928 15.2198 14.928 15.2168 14.928C15.2138 14.928 15.2108 14.928 15.2078 14.928C15.2048 14.928 15.2017 14.928 15.1987 14.928C15.1957 14.928 15.1926 14.928 15.1896 14.928C15.1865 14.928 15.1835 14.928 15.1804 14.928C15.1773 14.928 15.1743 14.928 15.1712 14.928C15.1681 14.928 15.165 14.928 15.1619 14.928C15.1588 14.928 15.1557 14.928 15.1526 14.928C15.1495 14.928 15.1464 14.928 15.1432 14.928C15.1401 14.928 15.137 14.928 15.1338 14.928C15.1307 14.928 15.1275 14.928 15.1244 14.928C15.1212 14.928 15.118 14.928 15.1149 14.928C15.1117 14.928 15.1085 14.928 15.1053 14.928C15.1021 14.928 15.0989 14.928 15.0957 14.928C15.0925 14.928 15.0893 14.928 15.0861 14.928C15.0828 14.928 15.0796 14.928 15.0764 14.928C15.0731 14.928 15.0699 14.928 15.0666 14.928C15.0634 14.928 15.0601 14.928 15.0569 14.928C15.0536 14.928 15.0503 14.928 15.047 14.928C15.0437 14.928 15.0404 14.928 15.0371 14.928C15.0338 14.928 15.0305 14.928 15.0272 14.928C15.0239 14.928 15.0206 14.928 15.0172 14.928C15.0139 14.928 15.0105 14.928 15.0072 14.928C15.0038 14.928 15.0005 14.928 14.9971 14.928C14.9937 14.928 14.9904 14.928 14.987 14.928C14.9836 14.928 14.9802 14.928 14.9768 14.928C14.9734 14.928 14.97 14.928 14.9666 14.928C14.9632 14.928 14.9598 14.928 14.9563 14.928C14.9529 14.928 14.9494 14.928 14.946 14.928C14.9426 14.928 14.9391 14.928 14.9356 14.928C14.9322 14.928 14.9287 14.928 14.9252 14.928C14.9217 14.928 14.9182 14.928 14.9147 14.928C14.9112 14.928 14.9077 14.928 14.9042 14.928C14.9007 14.928 14.8972 14.928 14.8937 14.928C14.8901 14.928 14.8866 14.928 14.883 14.928C14.8795 14.928 14.8759 14.928 14.8724 14.928C14.8688 14.928 14.8652 14.928 14.8616 14.928C14.8581 14.928 14.8545 14.928 14.8509 14.928C14.8473 14.928 14.8437 14.928 14.8401 14.928C14.8364 14.928 14.8328 14.928 14.8292 14.928C14.8256 14.928 14.8219 14.928 14.8183 14.928C14.8146 14.928 14.811 14.928 14.8073 14.928C14.8036 14.928 14.8 14.928 14.7963 14.928C14.7926 14.928 14.7889 14.928 14.7852 14.928C14.7815 14.928 14.7778 14.928 14.7741 14.928C14.7704 14.928 14.7667 14.928 14.7629 14.928C14.7592 14.928 14.7554 14.928 14.7517 14.928C14.7479 14.928 14.7442 14.928 14.7404 14.928C14.7367 14.928 14.7329 14.928 14.7291 14.928C14.7253 14.928 14.7215 14.928 14.7177 14.928C14.7139 14.928 14.7101 14.928 14.7063 14.928C14.7025 14.928 14.6986 14.928 14.6948 14.928C14.691 14.928 14.6871 14.928 14.6833 14.928C14.6794 14.928 14.6756 14.928 14.6717 14.928C14.6678 14.928 14.6639 14.928 14.66 14.928C14.6562 14.928 14.6523 14.928 14.6484 14.928C14.6444 14.928 14.6405 14.928 14.6366 14.928C14.6327 14.928 14.6288 14.928 14.6248 14.928C14.6209 14.928 14.6169 14.928 14.613 14.928C14.609 14.928 14.605 14.928 14.6011 14.928C14.5971 14.928 14.5931 14.928 14.5891 14.928C14.5851 14.928 14.5811 14.928 14.5771 14.928C14.5731 14.928 14.5691 14.928 14.5651 14.928C14.561 14.928 14.557 14.928 14.5529 14.928C14.5489 14.928 14.5448 14.928 14.5408 14.928C14.5367 14.928 14.5326 14.928 14.5286 14.928C14.5245 14.928 14.5204 14.928 14.5163 14.928C14.5122 14.928 14.5081 14.928 14.504 14.928C14.4998 14.928 14.4957 14.928 14.4916 14.928C14.4874 14.928 14.4833 14.928 14.4791 14.928C14.475 14.928 14.4708 14.928 14.4667 14.928C14.4625 14.928 14.4583 14.928 14.4541 14.928C14.4499 14.928 14.4457 14.928 14.4415 14.928C14.4373 14.928 14.4331 14.928 14.4289 14.928C14.4246 14.928 14.4204 14.928 14.4162 14.928C14.4119 14.928 14.4077 14.928 14.4034 14.928C14.3991 14.928 14.3949 14.928 14.3906 14.928C14.3863 14.928 14.382 14.928 14.3777 14.928C14.3734 14.928 14.3691 14.928 14.3648 14.928C14.3605 14.928 14.3562 14.928 14.3518 14.928C14.3475 14.928 14.3431 14.928 14.3388 14.928C14.3344 14.928 14.3301 14.928 14.3257 14.928C14.3213 14.928 14.3169 14.928 14.3126 14.928C14.3082 14.928 14.3038 14.928 14.2994 14.928C14.2949 14.928 14.2905 14.928 14.2861 14.928C14.2817 14.928 14.2772 14.928 14.2728 14.928C14.2683 14.928 14.2639 14.928 14.2594 14.928C14.255 14.928 14.2505 14.928 14.246 14.928C14.2415 14.928 14.237 14.928 14.2325 14.928C14.228 14.928 14.2235 14.928 14.219 14.928C14.2145 14.928 14.2099 14.928 14.2054 14.928C14.2008 14.928 14.1963 14.928 14.1917 14.928C14.1872 14.928 14.1826 14.928 14.178 14.928C14.1735 14.928 14.1689 14.928 14.1643 14.928C14.1597 14.928 14.1551 14.928 14.1505 14.928C14.1458 14.928 14.1412 14.928 14.1366 14.928C14.1319 14.928 14.1273 14.928 14.1226 14.928C14.118 14.928 14.1133 14.928 14.1087 14.928C14.104 14.928 14.0993 14.928 14.0946 14.928C14.0899 14.928 14.0852 14.928 14.0805 14.928C14.0758 14.928 14.0711 14.928 14.0663 14.928C14.0616 14.928 14.0569 14.928 14.0521 14.928C14.0474 14.928 14.0426 14.928 14.0379 14.928C14.0331 14.928 14.0283 14.928 14.0235 14.928C14.0187 14.928 14.0139 14.928 14.0091 14.928C14.0043 14.928 13.9995 14.928 13.9947 14.928C13.9898 14.928 13.985 14.928 13.9802 14.928C13.9753 14.928 13.9705 14.928 13.9656 14.928C13.9607 14.928 13.9559 14.928 13.951 14.928C13.9461 14.928 13.9412 14.928 13.9363 14.928C13.9314 14.928 13.9265 14.928 13.9215 14.928C13.9166 14.928 13.9117 14.928 13.9067 14.928C13.9018 14.928 13.8969 14.928 13.8919 14.928C13.8869 14.928 13.882 14.928 13.877 14.928C13.872 14.928 13.867 14.928 13.862 14.928C13.857 14.928 13.852 14.928 13.847 14.928C13.8419 14.928 13.8369 14.928 13.8319 14.928C13.8268 14.928 13.8218 14.928 13.8167 14.928C13.8116 14.928 13.8066 14.928 13.8015 14.928C13.7964 14.928 13.7913 14.928 13.7862 14.928C13.7811 14.928 13.776 14.928 13.7709 14.928C13.7658 14.928 13.7606 14.928 13.7555 14.928C13.7503 14.928 13.7452 14.928 13.74 14.928C13.7349 14.928 13.7297 14.928 13.7245 14.928C13.7193 14.928 13.7141 14.928 13.7089 14.928C13.7037 14.928 13.6985 14.928 13.6933 14.928C13.6881 14.928 13.6828 14.928 13.6776 14.928C13.6724 14.928 13.6671 14.928 13.6618 14.928C13.6566 14.928 13.6513 14.928 13.646 14.928C13.6407 14.928 13.6354 14.928 13.6301 14.928C13.6248 14.928 13.6195 14.928 13.6142 14.928C13.6089 14.928 13.6035 14.928 13.5982 14.928C13.5929 14.928 13.5875 14.928 13.5821 14.928V15.928ZM16.3953 15.428C16.4313 15.9267 16.4315 15.9267 16.4318 15.9267C16.4319 15.9267 16.4322 15.9267 16.4324 15.9266C16.4328 15.9266 16.4332 15.9266 16.4337 15.9265C16.4347 15.9265 16.4358 15.9264 16.437 15.9263C16.4396 15.9261 16.4427 15.9258 16.4464 15.9255C16.4538 15.9248 16.4636 15.9239 16.4755 15.9226C16.4994 15.9201 16.5321 15.9162 16.5724 15.9104C16.6528 15.8988 16.7643 15.8795 16.8967 15.8477C17.1595 15.7846 17.5153 15.6699 17.8758 15.4622C18.6192 15.0336 19.3569 14.2169 19.3569 12.7679L18.3569 12.7679C18.3569 13.8015 17.8637 14.3149 17.3764 14.5958C17.1215 14.7427 16.8619 14.8276 16.6632 14.8753C16.5648 14.899 16.484 14.9128 16.4298 14.9207C16.4027 14.9245 16.3826 14.9269 16.3704 14.9282C16.3643 14.9288 16.3603 14.9292 16.3584 14.9294C16.3574 14.9295 16.357 14.9295 16.3572 14.9295C16.3573 14.9295 16.3575 14.9294 16.3579 14.9294C16.358 14.9294 16.3583 14.9294 16.3585 14.9294C16.3586 14.9294 16.3588 14.9293 16.3589 14.9293C16.3591 14.9293 16.3594 14.9293 16.3953 15.428ZM19.3569 12.7679C19.3569 12.0606 19.1802 11.4969 18.8894 11.0569C18.6005 10.6199 18.2186 10.3344 17.8512 10.1491C17.486 9.96488 17.1267 9.87524 16.8628 9.83089C16.7298 9.80851 16.6178 9.79712 16.537 9.7913C16.4966 9.78839 16.4638 9.78685 16.4398 9.78605C16.4278 9.78564 16.418 9.78542 16.4105 9.7853C16.4068 9.78524 16.4037 9.7852 16.4011 9.78518C16.3999 9.78517 16.3987 9.78517 16.3978 9.78516C16.3973 9.78516 16.3969 9.78516 16.3964 9.78516C16.3962 9.78516 16.396 9.78516 16.3959 9.78516C16.3956 9.78516 16.3953 9.78516 16.3953 10.2852C16.3953 10.7852 16.3951 10.7852 16.3948 10.7852C16.3948 10.7852 16.3946 10.7852 16.3944 10.7852C16.3942 10.7852 16.394 10.7852 16.3938 10.7852C16.3934 10.7852 16.3932 10.7852 16.3931 10.7851C16.3929 10.7851 16.3933 10.7852 16.3942 10.7852C16.3961 10.7852 16.4001 10.7853 16.4061 10.7855C16.4182 10.7859 16.4383 10.7868 16.4651 10.7887C16.519 10.7926 16.5993 10.8006 16.697 10.817C16.8948 10.8503 17.1508 10.9158 17.4009 11.042C17.649 11.1671 17.8825 11.3471 18.0551 11.6083C18.2259 11.8666 18.3569 12.2339 18.3569 12.7679L19.3569 12.7679ZM16.3953 9.78516H5.14258V10.7852H16.3953V9.78516Z" fill="#F4FFFF"/>
<circle cx="12" cy="12" r="11.5" stroke="white"/>
</svg>
